<?xml version="1.0" encoding="utf-8"?>
<!-- Generator: Adobe Illustrator 24.0.1, SVG Export Plug-In . SVG Version: 6.00 Build 0)  -->
<svg version="1.1" id="Layer_1" xmlns="http://www.w3.org/2000/svg" xmlns:xlink="http://www.w3.org/1999/xlink" x="0px" y="0px"
	 viewBox="0 0 1250 1250" style="enable-background:new 0 0 1250 1250;" xml:space="preserve">
<style type="text/css">
	.st0{display:none;}
</style>
<image style="display:none;overflow:visible;" width="1860" height="1718" xlink:href="патерн япония.png" >
</image>
<path d="M48.6,19.5c-0.9-1.6-2.3-3-4.3-4.3c-2-1.3-4.5-1.9-7.6-2h-0.4c-0.3,0-0.5-0.1-0.8-0.1H16.6V8.4h-9v4.7H0V22h7.6v7.4
	c0,3.1,0.5,6.1,1.3,8.9c0.9,2.8,2.3,5.1,4.3,7.1c2,1.9,4.6,3,7.7,3.2h21.9v-8.9H23.2c-1.7-0.1-3.1-0.7-4.2-1.9
	c-1.1-1.2-1.8-2.6-2.1-4.1c-0.3-1.5-0.4-3.2-0.4-5V22h21.3c0.7,0,1.2,0.2,1.6,0.5c0.4,0.3,0.7,0.6,0.9,0.9c0.2,0.3,0.3,0.7,0.3,1
	c0,0.4-0.1,0.7-0.3,1c-0.2,0.3-0.5,0.6-0.9,0.9c-0.4,0.3-1,0.4-1.6,0.4H22.2v8.9h14.5c3.1,0,5.7-0.6,7.7-1.9c2-1.3,3.5-2.7,4.3-4.3
	s1.3-3.3,1.3-5C49.9,22.8,49.5,21.1,48.6,19.5z M48.6,2.8c-0.9-0.9-2.1-1.4-3.4-1.4c-1.3,0-2.5,0.5-3.4,1.4s-1.4,2.1-1.4,3.4
	c0,1.3,0.5,2.5,1.4,3.4c0.9,0.9,2.1,1.4,3.4,1.4c1.3,0,2.5-0.5,3.4-1.4c0.9-0.9,1.4-2,1.4-3.4C50,4.9,49.5,3.8,48.6,2.8z M37.2,2.8
	c-0.9-0.9-2-1.4-3.4-1.4s-2.5,0.5-3.4,1.4C29.5,3.8,29,4.9,29,6.2c0,1.3,0.5,2.5,1.4,3.4c0.9,0.9,2.1,1.4,3.4,1.4s2.5-0.5,3.4-1.4
	c0.9-0.9,1.4-2,1.4-3.4C38.6,4.9,38.1,3.8,37.2,2.8z M47.5,113.1c-0.9-0.8-1.9-1.2-3.1-1.2H16.6c-1.2,0-2.3,0.4-3.2,1.2
	c-1,0.8-1.5,1.8-1.8,3v0.3c-0.2,1.8-0.6,3.4-1,4.9c-0.5,1.5-1.3,2.8-2.5,4c-1.2,1.2-2.7,1.8-4.3,1.9H0.2v8.7h4.5
	c3-0.2,5.6-1.2,7.8-3.1c2.2-1.9,4-4.2,5.2-6.9c0.7-1.7,1.3-3.4,1.8-5.3h18.6c0.9,0,1.2,0.6,1.1,1.6l-0.6,4.2H21.4v8.7h15.8
	c0,0.2-0.1,0.3-0.1,0.5c-0.5,1.5-1.3,2.8-2.5,4c-1.2,1.2-2.7,1.8-4.3,1.9h-8.9v8.7h10c3-0.2,5.6-1.2,7.8-3.1c2.2-1.9,4-4.2,5.2-6.9
	c1.2-2.7,2-5.6,2.4-8.7l2.1-15.2C48.8,115.1,48.4,114.1,47.5,113.1z M48.6,101.4c-0.9-0.9-2-1.4-3.3-1.4c-1.3,0-2.4,0.5-3.3,1.4
	c-0.9,0.9-1.3,2-1.3,3.3c0,1.3,0.5,2.4,1.3,3.3c0.9,0.9,2,1.3,3.3,1.3c1.3,0,2.4-0.5,3.3-1.3c0.9-0.9,1.4-2,1.4-3.3
	C49.9,103.4,49.5,102.3,48.6,101.4z M37.5,101.4c-0.9-0.9-2-1.4-3.3-1.4c-1.3,0-2.4,0.5-3.3,1.4c-0.9,0.9-1.3,2-1.3,3.3
	c0,1.3,0.5,2.4,1.3,3.3c0.9,0.9,2,1.3,3.3,1.3c1.3,0,2.4-0.5,3.3-1.3c0.9-0.9,1.4-2,1.4-3.3C38.8,103.4,38.4,102.3,37.5,101.4z
	 M39.4,203l-1.9,5c-0.7,1.9-1.4,3.7-2.3,5.4c-0.8,1.7-2.1,3.2-3.7,4.5c-1.6,1.3-3.4,2-5.3,2.1H0v9.9h21.1V247H31v-17.5
	c2.6-0.4,5.1-1.8,7.4-4c2.9-2.9,5.6-7.2,8-13L50,203H39.4z M31.5,327.1l9.2-15.1c0.4-0.7,0.5-1.4,0.5-2.2c0-1.2-0.4-2.3-1.3-3.2
	c-0.9-0.8-1.9-1.3-3.2-1.3H0v8.9h29.3l-6.2,10.4c-1.1,1.8-2.2,3.5-3.4,5c-1.2,1.5-2.7,2.9-4.5,4.1c-1.8,1.2-3.6,1.8-5.3,1.9H0.3v8.9
	h10.3c3.2-0.2,6.5-1.5,9.9-4.1c2-1.5,3.9-3.5,5.8-5.8l10.6,10H50L31.5,327.1z M12.5,420.9v8.1h25v-8.1H12.5z M48.6,1019.5
	c-0.9-1.6-2.3-3-4.3-4.3c-2-1.3-4.5-1.9-7.6-2h-0.4c-0.3,0-0.5-0.1-0.8-0.1H16.6v-4.7h-9v4.7H0v8.9h7.6v7.4c0,3.1,0.5,6.1,1.3,8.9
	c0.9,2.8,2.3,5.1,4.3,7.1c2,1.9,4.6,3,7.7,3.2h21.9v-8.9H23.2c-1.7-0.1-3.1-0.7-4.2-1.9c-1.1-1.2-1.8-2.6-2.1-4.1
	c-0.3-1.5-0.4-3.2-0.4-5v-6.6h21.3c0.7,0,1.2,0.2,1.6,0.5c0.4,0.3,0.7,0.6,0.9,0.9c0.2,0.3,0.3,0.7,0.3,1c0,0.3-0.1,0.7-0.3,1
	c-0.2,0.3-0.5,0.6-0.9,0.9c-0.4,0.3-1,0.4-1.6,0.4H22.2v8.9h14.5c3.1,0,5.7-0.6,7.7-1.9c2-1.3,3.5-2.7,4.3-4.3s1.3-3.3,1.3-5
	C49.9,1022.8,49.5,1021.1,48.6,1019.5z M48.6,1002.8c-0.9-0.9-2.1-1.4-3.4-1.4c-1.3,0-2.5,0.5-3.4,1.4s-1.4,2.1-1.4,3.4
	c0,1.3,0.5,2.5,1.4,3.4c0.9,0.9,2.1,1.4,3.4,1.4c1.3,0,2.5-0.5,3.4-1.4c0.9-0.9,1.4-2,1.4-3.4C50,1004.9,49.5,1003.8,48.6,1002.8z
	 M37.2,1002.8c-0.9-0.9-2-1.4-3.4-1.4s-2.5,0.5-3.4,1.4c-0.9,0.9-1.4,2.1-1.4,3.4c0,1.3,0.5,2.5,1.4,3.4c0.9,0.9,2.1,1.4,3.4,1.4
	s2.5-0.5,3.4-1.4c0.9-0.9,1.4-2,1.4-3.4C38.6,1004.9,38.1,1003.8,37.2,1002.8z M47.5,1113.1c-0.9-0.8-1.9-1.2-3.1-1.2H16.6
	c-1.2,0-2.3,0.4-3.2,1.2c-1,0.8-1.5,1.8-1.8,3v0.3c-0.2,1.8-0.6,3.4-1,4.9c-0.5,1.5-1.3,2.8-2.5,4c-1.2,1.2-2.7,1.8-4.3,1.9H0.2v8.7
	h4.5c3-0.2,5.6-1.2,7.8-3.1c2.2-1.9,4-4.2,5.2-6.9c0.7-1.7,1.3-3.4,1.8-5.3h18.6c0.9,0,1.2,0.6,1.1,1.6l-0.6,4.2H21.4v8.7h15.8
	c0,0.2-0.1,0.3-0.1,0.5c-0.5,1.5-1.3,2.8-2.5,4c-1.2,1.2-2.7,1.8-4.3,1.9h-8.9v8.7h10c3-0.2,5.6-1.2,7.8-3.1c2.2-1.9,4-4.2,5.2-6.9
	c1.2-2.7,2-5.6,2.4-8.7l2.1-15.2C48.8,1115.1,48.4,1114.1,47.5,1113.1z M48.6,1101.4c-0.9-0.9-2-1.4-3.3-1.4c-1.3,0-2.4,0.4-3.3,1.4
	c-0.9,0.9-1.3,2-1.3,3.3c0,1.3,0.5,2.4,1.3,3.3c0.9,0.9,2,1.4,3.3,1.4c1.3,0,2.4-0.5,3.3-1.4c0.9-0.9,1.4-2,1.4-3.3
	C49.9,1103.4,49.5,1102.3,48.6,1101.4z M37.5,1101.4c-0.9-0.9-2-1.4-3.3-1.4c-1.3,0-2.4,0.4-3.3,1.4c-0.9,0.9-1.3,2-1.3,3.3
	c0,1.3,0.5,2.4,1.3,3.3c0.9,0.9,2,1.4,3.3,1.4c1.3,0,2.4-0.5,3.3-1.4c0.9-0.9,1.4-2,1.4-3.3C38.8,1103.4,38.4,1102.3,37.5,1101.4z
	 M39.4,1202.9l-1.9,5c-0.7,1.9-1.4,3.7-2.3,5.4c-0.8,1.7-2.1,3.2-3.7,4.5c-1.6,1.3-3.4,2-5.3,2.1H0v9.9h21.1v17.2H31v-17.5
	c2.6-0.4,5.1-1.8,7.4-4c2.9-2.8,5.6-7.2,8-13l3.7-9.7H39.4z M48.6,519.5c-0.9-1.6-2.3-3-4.3-4.3c-2-1.3-4.5-1.9-7.6-2h-0.4
	c-0.3,0-0.5-0.1-0.8-0.1H16.6v-4.7h-9v4.7H0v8.9h7.6v7.4c0,3.1,0.5,6.1,1.3,8.9c0.9,2.8,2.3,5.1,4.3,7.1c2,1.9,4.6,3,7.7,3.2h21.9
	v-8.9H23.2c-1.7-0.1-3.1-0.7-4.2-1.9c-1.1-1.2-1.8-2.6-2.1-4.1c-0.3-1.5-0.4-3.2-0.4-5V522h21.3c0.7,0,1.2,0.2,1.6,0.5
	c0.4,0.3,0.7,0.6,0.9,0.9c0.2,0.3,0.3,0.7,0.3,1c0,0.4-0.1,0.7-0.3,1c-0.2,0.3-0.5,0.6-0.9,0.9c-0.4,0.3-1,0.4-1.6,0.4H22.2v8.9
	h14.5c3.1,0,5.7-0.6,7.7-1.9c2-1.3,3.5-2.7,4.3-4.3s1.3-3.3,1.3-5C49.9,522.8,49.5,521.1,48.6,519.5z M48.6,502.8
	c-0.9-0.9-2.1-1.4-3.4-1.4c-1.3,0-2.5,0.5-3.4,1.4s-1.4,2.1-1.4,3.4c0,1.3,0.5,2.5,1.4,3.4c0.9,0.9,2.1,1.4,3.4,1.4
	c1.3,0,2.5-0.5,3.4-1.4c0.9-0.9,1.4-2,1.4-3.4C50,504.9,49.5,503.8,48.6,502.8z M37.2,502.8c-0.9-0.9-2-1.4-3.4-1.4
	s-2.5,0.5-3.4,1.4c-0.9,0.9-1.4,2.1-1.4,3.4c0,1.3,0.5,2.5,1.4,3.4c0.9,0.9,2.1,1.4,3.4,1.4s2.5-0.5,3.4-1.4c0.9-0.9,1.4-2,1.4-3.4
	C38.6,504.9,38.1,503.8,37.2,502.8z M47.5,613.1c-0.9-0.8-1.9-1.2-3.1-1.2H16.6c-1.2,0-2.3,0.4-3.2,1.2c-1,0.8-1.5,1.8-1.8,3v0.3
	c-0.2,1.8-0.6,3.4-1,4.9c-0.5,1.5-1.3,2.8-2.5,4c-1.2,1.2-2.7,1.8-4.3,1.9H0.2v8.7h4.5c3-0.2,5.6-1.2,7.8-3.1c2.2-1.9,4-4.2,5.2-6.9
	c0.7-1.7,1.3-3.4,1.8-5.3h18.6c0.9,0,1.2,0.6,1.1,1.6l-0.6,4.2H21.4v8.7h15.8c0,0.2-0.1,0.3-0.1,0.5c-0.5,1.5-1.3,2.8-2.5,4
	c-1.2,1.2-2.7,1.8-4.3,1.9h-8.9v8.7h10c3-0.2,5.6-1.2,7.8-3.1c2.2-1.9,4-4.2,5.2-6.9c1.2-2.7,2-5.6,2.4-8.7l2.1-15.2
	C48.8,615.1,48.4,614.1,47.5,613.1z M48.6,601.4c-0.9-0.9-2-1.4-3.3-1.4c-1.3,0-2.4,0.5-3.3,1.4c-0.9,0.9-1.3,2-1.3,3.3
	c0,1.3,0.5,2.4,1.3,3.3c0.9,0.9,2,1.3,3.3,1.3c1.3,0,2.4-0.5,3.3-1.3c0.9-0.9,1.4-2,1.4-3.3C49.9,603.4,49.5,602.3,48.6,601.4z
	 M37.5,601.4c-0.9-0.9-2-1.4-3.3-1.4c-1.3,0-2.4,0.5-3.3,1.4c-0.9,0.9-1.3,2-1.3,3.3c0,1.3,0.5,2.4,1.3,3.3c0.9,0.9,2,1.3,3.3,1.3
	c1.3,0,2.4-0.5,3.3-1.3c0.9-0.9,1.4-2,1.4-3.3C38.8,603.4,38.4,602.3,37.5,601.4z M39.4,703l-1.9,5c-0.7,1.9-1.4,3.7-2.3,5.4
	c-0.8,1.7-2.1,3.2-3.7,4.5c-1.6,1.3-3.4,2-5.3,2.1H0v9.9h21.1V747H31v-17.5c2.6-0.4,5.1-1.8,7.4-4c2.9-2.9,5.6-7.2,8-13L50,703H39.4
	z M31.5,827.1l9.2-15.1c0.4-0.7,0.5-1.4,0.5-2.2c0-1.2-0.4-2.3-1.3-3.2c-0.9-0.8-1.9-1.3-3.2-1.3H0v8.9h29.3l-6.2,10.4
	c-1.1,1.8-2.2,3.5-3.4,5c-1.2,1.5-2.7,2.9-4.5,4.1c-1.8,1.2-3.6,1.8-5.3,1.9H0.3v8.9h10.3c3.2-0.2,6.5-1.5,9.9-4.1
	c2-1.5,3.9-3.5,5.8-5.8l10.6,10H50L31.5,827.1z M12.5,920.9v8.1h25v-8.1H12.5z M147.5,13.1c-0.9-0.8-1.9-1.2-3.1-1.2h-27.8
	c-1.2,0-2.3,0.4-3.2,1.2c-1,0.8-1.5,1.8-1.8,3v0.3c-0.2,1.8-0.6,3.4-1,4.9c-0.5,1.5-1.3,2.8-2.5,4c-1.2,1.2-2.7,1.8-4.3,1.9h-3.5
	v8.7h4.5c3-0.2,5.6-1.2,7.8-3.1c2.2-1.9,4-4.2,5.2-6.9c0.7-1.7,1.3-3.4,1.8-5.3h18.6c0.9,0,1.2,0.6,1.1,1.6l-0.6,4.2h-17.3V35h15.8
	c0,0.2-0.1,0.3-0.1,0.5c-0.5,1.5-1.3,2.8-2.5,4c-1.2,1.2-2.7,1.8-4.3,1.9h-8.9V50h10c3-0.2,5.6-1.2,7.8-3.1c2.2-1.9,4-4.2,5.2-6.9
	c1.2-2.7,2-5.6,2.4-8.7l2.1-15.2C148.8,15.1,148.4,14.1,147.5,13.1z M148.6,1.4c-0.9-0.9-2-1.4-3.3-1.4c-1.3,0-2.4,0.5-3.3,1.4
	c-0.9,0.9-1.3,2-1.3,3.3c0,1.3,0.5,2.4,1.3,3.3c0.9,0.9,2,1.3,3.3,1.3c1.3,0,2.4-0.5,3.3-1.3c0.9-0.9,1.4-2,1.4-3.3
	C149.9,3.4,149.5,2.3,148.6,1.4z M137.5,1.4c-0.9-0.9-2-1.4-3.3-1.4c-1.3,0-2.4,0.5-3.3,1.4c-0.9,0.9-1.3,2-1.3,3.3
	c0,1.3,0.5,2.4,1.3,3.3c0.9,0.9,2,1.3,3.3,1.3c1.3,0,2.4-0.5,3.3-1.3c0.9-0.9,1.4-2,1.4-3.3C138.8,3.4,138.4,2.3,137.5,1.4z
	 M139.4,103l-1.9,5c-0.7,1.9-1.4,3.7-2.3,5.4c-0.8,1.7-2.1,3.2-3.7,4.5c-1.6,1.3-3.4,2-5.3,2.1H100v9.9h21.1V147h9.9v-17.5
	c2.6-0.4,5.1-1.8,7.4-4c2.9-2.9,5.6-7.2,8-13l3.7-9.7H139.4z M131.5,227.1l9.2-15.1c0.4-0.7,0.5-1.4,0.5-2.2c0-1.2-0.4-2.3-1.3-3.2
	c-0.9-0.8-1.9-1.3-3.2-1.3H100v8.9h29.3l-6.2,10.4c-1.1,1.8-2.2,3.5-3.4,5c-1.2,1.5-2.7,2.9-4.5,4.1c-1.8,1.2-3.6,1.8-5.3,1.9h-9.7
	v8.9h10.3c3.2-0.2,6.5-1.5,9.9-4.1c2-1.5,3.9-3.5,5.8-5.8l10.6,10H150L131.5,227.1z M112.5,320.9v8.1h25v-8.1H112.5z M148.6,919.5
	c-0.9-1.6-2.3-3-4.3-4.3c-2-1.3-4.5-1.9-7.6-2h-0.4c-0.3,0-0.5-0.1-0.8-0.1h-18.9v-4.7h-9v4.7H100v8.9h7.6v7.4
	c0,3.1,0.5,6.1,1.3,8.9c0.9,2.8,2.3,5.1,4.3,7.1c2,1.9,4.6,3,7.7,3.2h21.9v-8.9h-19.7c-1.7-0.1-3.1-0.7-4.2-1.9
	c-1.1-1.2-1.8-2.6-2.1-4.1c-0.3-1.5-0.4-3.2-0.4-5V922h21.3c0.7,0,1.2,0.2,1.6,0.5c0.4,0.3,0.7,0.6,0.9,0.9c0.2,0.3,0.3,0.7,0.3,1
	c0,0.4-0.1,0.7-0.3,1c-0.2,0.3-0.5,0.6-0.9,0.9c-0.4,0.3-1,0.4-1.6,0.4h-15.7v8.9h14.5c3.1,0,5.7-0.6,7.7-1.9c2-1.3,3.5-2.7,4.3-4.3
	s1.3-3.3,1.3-5C149.9,922.8,149.5,921.1,148.6,919.5z M148.6,902.8c-0.9-0.9-2.1-1.4-3.4-1.4c-1.3,0-2.5,0.5-3.4,1.4
	s-1.4,2.1-1.4,3.4c0,1.3,0.5,2.5,1.4,3.4c0.9,0.9,2.1,1.4,3.4,1.4c1.3,0,2.5-0.5,3.4-1.4c0.9-0.9,1.4-2,1.4-3.4
	C150,904.9,149.5,903.8,148.6,902.8z M137.2,902.8c-0.9-0.9-2-1.4-3.4-1.4s-2.5,0.5-3.4,1.4c-0.9,0.9-1.4,2.1-1.4,3.4
	c0,1.3,0.5,2.5,1.4,3.4c0.9,0.9,2.1,1.4,3.4,1.4s2.5-0.5,3.4-1.4c0.9-0.9,1.4-2,1.4-3.4C138.6,904.9,138.1,903.8,137.2,902.8z
	 M147.5,1013.1c-0.9-0.8-1.9-1.2-3.1-1.2h-27.8c-1.2,0-2.3,0.4-3.2,1.2c-1,0.8-1.5,1.8-1.8,3v0.3c-0.2,1.8-0.6,3.4-1,4.9
	c-0.5,1.5-1.3,2.8-2.5,4c-1.2,1.2-2.7,1.8-4.3,1.9h-3.5v8.7h4.5c3-0.2,5.6-1.2,7.8-3.1c2.2-1.9,4-4.2,5.2-6.9
	c0.7-1.7,1.3-3.4,1.8-5.3h18.6c0.9,0,1.2,0.6,1.1,1.6l-0.6,4.2h-17.3v8.7h15.8c0,0.2-0.1,0.3-0.1,0.5c-0.5,1.5-1.3,2.8-2.5,4
	c-1.2,1.2-2.7,1.8-4.3,1.9h-8.9v8.7h10c3-0.2,5.6-1.2,7.8-3.1c2.2-1.9,4-4.2,5.2-6.9c1.2-2.7,2-5.6,2.4-8.7l2.1-15.2
	C148.8,1015.1,148.4,1014.1,147.5,1013.1z M148.6,1001.4c-0.9-0.9-2-1.4-3.3-1.4c-1.3,0-2.4,0.5-3.3,1.4c-0.9,0.9-1.3,2-1.3,3.3
	c0,1.3,0.5,2.4,1.3,3.3c0.9,0.9,2,1.3,3.3,1.3c1.3,0,2.4-0.5,3.3-1.3c0.9-0.9,1.4-2,1.4-3.3C149.9,1003.4,149.5,1002.3,148.6,1001.4
	z M137.5,1001.4c-0.9-0.9-2-1.4-3.3-1.4c-1.3,0-2.4,0.5-3.3,1.4c-0.9,0.9-1.3,2-1.3,3.3c0,1.3,0.5,2.4,1.3,3.3
	c0.9,0.9,2,1.3,3.3,1.3c1.3,0,2.4-0.5,3.3-1.3c0.9-0.9,1.4-2,1.4-3.3C138.8,1003.4,138.4,1002.3,137.5,1001.4z M139.4,1102.9l-1.9,5
	c-0.7,1.9-1.4,3.7-2.3,5.4c-0.8,1.7-2.1,3.2-3.7,4.5c-1.6,1.3-3.4,2-5.3,2.1H100v9.9h21.1v17.2h9.9v-17.5c2.6-0.4,5.1-1.8,7.4-4
	c2.9-2.8,5.6-7.2,8-13l3.7-9.7H139.4z M131.5,1227.1l9.2-15.1c0.4-0.7,0.5-1.4,0.5-2.2c0-1.2-0.4-2.3-1.3-3.2
	c-0.9-0.8-1.9-1.3-3.2-1.3H100v8.9h29.3l-6.2,10.4c-1.1,1.8-2.2,3.5-3.4,5c-1.2,1.5-2.7,2.9-4.5,4.1c-1.8,1.2-3.6,1.8-5.3,1.9h-9.7
	v8.9h10.3c3.2-0.2,6.5-1.5,9.9-4.1c2-1.5,3.9-3.4,5.8-5.8l10.6,10H150L131.5,1227.1z M148.6,419.5c-0.9-1.6-2.3-3-4.3-4.3
	c-2-1.3-4.5-1.9-7.6-2h-0.4c-0.3,0-0.5-0.1-0.8-0.1h-18.9v-4.7h-9v4.7H100v8.9h7.6v7.4c0,3.1,0.5,6.1,1.3,8.9
	c0.9,2.8,2.3,5.1,4.3,7.1c2,1.9,4.6,3,7.7,3.2h21.9v-8.9h-19.7c-1.7-0.1-3.1-0.7-4.2-1.9c-1.1-1.2-1.8-2.6-2.1-4.1
	c-0.3-1.5-0.4-3.2-0.4-5V422h21.3c0.7,0,1.2,0.2,1.6,0.5c0.4,0.3,0.7,0.6,0.9,0.9c0.2,0.3,0.3,0.7,0.3,1c0,0.4-0.1,0.7-0.3,1
	c-0.2,0.3-0.5,0.6-0.9,0.9c-0.4,0.3-1,0.4-1.6,0.4h-15.7v8.9h14.5c3.1,0,5.7-0.6,7.7-1.9c2-1.3,3.5-2.7,4.3-4.3s1.3-3.3,1.3-5
	C149.9,422.8,149.5,421.1,148.6,419.5z M148.6,402.8c-0.9-0.9-2.1-1.4-3.4-1.4c-1.3,0-2.5,0.5-3.4,1.4s-1.4,2.1-1.4,3.4
	c0,1.3,0.5,2.5,1.4,3.4c0.9,0.9,2.1,1.4,3.4,1.4c1.3,0,2.5-0.5,3.4-1.4c0.9-0.9,1.4-2,1.4-3.4C150,404.9,149.5,403.8,148.6,402.8z
	 M137.2,402.8c-0.9-0.9-2-1.4-3.4-1.4s-2.5,0.5-3.4,1.4c-0.9,0.9-1.4,2.1-1.4,3.4c0,1.3,0.5,2.5,1.4,3.4c0.9,0.9,2.1,1.4,3.4,1.4
	s2.5-0.5,3.4-1.4c0.9-0.9,1.4-2,1.4-3.4C138.6,404.9,138.1,403.8,137.2,402.8z M147.5,513.1c-0.9-0.8-1.9-1.2-3.1-1.2h-27.8
	c-1.2,0-2.3,0.4-3.2,1.2c-1,0.8-1.5,1.8-1.8,3v0.3c-0.2,1.8-0.6,3.4-1,4.9c-0.5,1.5-1.3,2.8-2.5,4c-1.2,1.2-2.7,1.8-4.3,1.9h-3.5
	v8.7h4.5c3-0.2,5.6-1.2,7.8-3.1c2.2-1.9,4-4.2,5.2-6.9c0.7-1.7,1.3-3.4,1.8-5.3h18.6c0.9,0,1.2,0.6,1.1,1.6l-0.6,4.2h-17.3v8.7h15.8
	c0,0.2-0.1,0.3-0.1,0.5c-0.5,1.5-1.3,2.8-2.5,4c-1.2,1.2-2.7,1.8-4.3,1.9h-8.9v8.7h10c3-0.2,5.6-1.2,7.8-3.1c2.2-1.9,4-4.2,5.2-6.9
	c1.2-2.7,2-5.6,2.4-8.7l2.1-15.2C148.8,515.1,148.4,514.1,147.5,513.1z M148.6,501.4c-0.9-0.9-2-1.4-3.3-1.4c-1.3,0-2.4,0.5-3.3,1.4
	c-0.9,0.9-1.3,2-1.3,3.3c0,1.3,0.5,2.4,1.3,3.3c0.9,0.9,2,1.3,3.3,1.3c1.3,0,2.4-0.5,3.3-1.3c0.9-0.9,1.4-2,1.4-3.3
	C149.9,503.4,149.5,502.3,148.6,501.4z M137.5,501.4c-0.9-0.9-2-1.4-3.3-1.4c-1.3,0-2.4,0.5-3.3,1.4c-0.9,0.9-1.3,2-1.3,3.3
	c0,1.3,0.5,2.4,1.3,3.3c0.9,0.9,2,1.3,3.3,1.3c1.3,0,2.4-0.5,3.3-1.3c0.9-0.9,1.4-2,1.4-3.3C138.8,503.4,138.4,502.3,137.5,501.4z
	 M139.4,603l-1.9,5c-0.7,1.9-1.4,3.7-2.3,5.4c-0.8,1.7-2.1,3.2-3.7,4.5c-1.6,1.3-3.4,2-5.3,2.1H100v9.9h21.1V647h9.9v-17.5
	c2.6-0.4,5.1-1.8,7.4-4c2.9-2.9,5.6-7.2,8-13l3.7-9.7H139.4z M131.5,727.1l9.2-15.1c0.4-0.7,0.5-1.4,0.5-2.2c0-1.2-0.4-2.3-1.3-3.2
	c-0.9-0.8-1.9-1.3-3.2-1.3H100v8.9h29.3l-6.2,10.4c-1.1,1.8-2.2,3.5-3.4,5c-1.2,1.5-2.7,2.9-4.5,4.1c-1.8,1.2-3.6,1.8-5.3,1.9h-9.7
	v8.9h10.3c3.2-0.2,6.5-1.5,9.9-4.1c2-1.5,3.9-3.5,5.8-5.8l10.6,10H150L131.5,727.1z M112.5,820.9v8.1h25v-8.1H112.5z M239.4,3
	l-1.9,5c-0.7,1.9-1.4,3.7-2.3,5.4c-0.8,1.7-2.1,3.2-3.7,4.5c-1.6,1.3-3.4,2-5.3,2.1H200v9.9h21.1V47h9.9V29.6c2.6-0.4,5.1-1.8,7.4-4
	c2.9-2.9,5.6-7.2,8-13L250,3H239.4z M231.5,127.1l9.2-15.1c0.4-0.7,0.5-1.4,0.5-2.2c0-1.2-0.4-2.3-1.3-3.2c-0.9-0.8-1.9-1.3-3.2-1.3
	H200v8.9h29.3l-6.2,10.4c-1.1,1.8-2.2,3.5-3.4,5c-1.2,1.5-2.7,2.9-4.5,4.1c-1.8,1.2-3.6,1.8-5.3,1.9h-9.7v8.9h10.3
	c3.2-0.2,6.5-1.5,9.9-4.1c2-1.5,3.9-3.5,5.8-5.8l10.6,10H250L231.5,127.1z M212.5,220.9v8.1h25v-8.1H212.5z M248.6,819.5
	c-0.9-1.6-2.3-3-4.3-4.3c-2-1.3-4.5-1.9-7.6-2h-0.4c-0.3,0-0.5-0.1-0.8-0.1h-18.9v-4.7h-9v4.7H200v8.9h7.6v7.4
	c0,3.1,0.5,6.1,1.3,8.9c0.9,2.8,2.3,5.1,4.3,7.1c2,1.9,4.6,3,7.7,3.2h21.9v-8.9h-19.7c-1.7-0.1-3.1-0.7-4.2-1.9
	c-1.1-1.2-1.8-2.6-2.1-4.1c-0.3-1.5-0.4-3.2-0.4-5V822h21.3c0.7,0,1.2,0.2,1.6,0.5c0.4,0.3,0.7,0.6,0.9,0.9c0.2,0.3,0.3,0.7,0.3,1
	c0,0.4-0.1,0.7-0.3,1c-0.2,0.3-0.5,0.6-0.9,0.9c-0.4,0.3-1,0.4-1.6,0.4h-15.7v8.9h14.5c3.1,0,5.7-0.6,7.7-1.9c2-1.3,3.5-2.7,4.3-4.3
	s1.3-3.3,1.3-5C249.9,822.8,249.5,821.1,248.6,819.5z M248.6,802.8c-0.9-0.9-2.1-1.4-3.4-1.4c-1.3,0-2.5,0.5-3.4,1.4
	s-1.4,2.1-1.4,3.4c0,1.3,0.5,2.5,1.4,3.4c0.9,0.9,2.1,1.4,3.4,1.4c1.3,0,2.5-0.5,3.4-1.4c0.9-0.9,1.4-2,1.4-3.4
	C250,804.9,249.5,803.8,248.6,802.8z M237.2,802.8c-0.9-0.9-2-1.4-3.4-1.4s-2.5,0.5-3.4,1.4c-0.9,0.9-1.4,2.1-1.4,3.4
	c0,1.3,0.5,2.5,1.4,3.4c0.9,0.9,2.1,1.4,3.4,1.4s2.5-0.5,3.4-1.4c0.9-0.9,1.4-2,1.4-3.4C238.6,804.9,238.1,803.8,237.2,802.8z
	 M247.5,913.1c-0.9-0.8-1.9-1.2-3.1-1.2h-27.8c-1.2,0-2.3,0.4-3.2,1.2c-1,0.8-1.5,1.8-1.8,3v0.3c-0.2,1.8-0.6,3.4-1,4.9
	c-0.5,1.5-1.3,2.8-2.5,4c-1.2,1.2-2.7,1.8-4.3,1.9h-3.5v8.7h4.5c3-0.2,5.6-1.2,7.8-3.1c2.2-1.9,4-4.2,5.2-6.9
	c0.7-1.7,1.3-3.4,1.8-5.3h18.6c0.9,0,1.2,0.6,1.1,1.6l-0.6,4.2h-17.3v8.7h15.8c0,0.2-0.1,0.3-0.1,0.5c-0.5,1.5-1.3,2.8-2.5,4
	c-1.2,1.2-2.7,1.8-4.3,1.9h-8.9v8.7h10c3-0.2,5.6-1.2,7.8-3.1c2.2-1.9,4-4.2,5.2-6.9c1.2-2.7,2-5.6,2.4-8.7l2.1-15.2
	C248.8,915.1,248.4,914.1,247.5,913.1z M248.6,901.4c-0.9-0.9-2-1.4-3.3-1.4c-1.3,0-2.4,0.5-3.3,1.4c-0.9,0.9-1.3,2-1.3,3.3
	c0,1.3,0.5,2.4,1.3,3.3c0.9,0.9,2,1.3,3.3,1.3c1.3,0,2.4-0.5,3.3-1.3c0.9-0.9,1.4-2,1.4-3.3C249.9,903.4,249.5,902.3,248.6,901.4z
	 M237.5,901.4c-0.9-0.9-2-1.4-3.3-1.4c-1.3,0-2.4,0.5-3.3,1.4c-0.9,0.9-1.3,2-1.3,3.3c0,1.3,0.5,2.4,1.3,3.3c0.9,0.9,2,1.3,3.3,1.3
	c1.3,0,2.4-0.5,3.3-1.3c0.9-0.9,1.4-2,1.4-3.3C238.8,903.4,238.4,902.3,237.5,901.4z M239.4,1003l-1.9,5c-0.7,1.9-1.4,3.7-2.3,5.4
	c-0.8,1.7-2.1,3.2-3.7,4.5c-1.6,1.3-3.4,2-5.3,2.1H200v9.9h21.1v17.2h9.9v-17.5c2.6-0.4,5.1-1.8,7.4-4c2.9-2.9,5.6-7.2,8-13l3.7-9.7
	H239.4z M231.5,1127.1l9.2-15.1c0.4-0.7,0.5-1.4,0.5-2.2c0-1.2-0.4-2.3-1.3-3.2c-0.9-0.8-1.9-1.3-3.2-1.3H200v8.9h29.3l-6.2,10.4
	c-1.1,1.8-2.2,3.5-3.4,5c-1.2,1.5-2.7,2.9-4.5,4.1c-1.8,1.2-3.6,1.8-5.3,1.9h-9.7v8.9h10.3c3.2-0.2,6.5-1.5,9.9-4.1
	c2-1.5,3.9-3.4,5.8-5.8l10.6,10H250L231.5,1127.1z M212.5,1220.9v8.1h25v-8.1H212.5z M248.6,319.5c-0.9-1.6-2.3-3-4.3-4.3
	c-2-1.3-4.5-1.9-7.6-2h-0.4c-0.3,0-0.5-0.1-0.8-0.1h-18.9v-4.7h-9v4.7H200v8.9h7.6v7.4c0,3.1,0.5,6.1,1.3,8.9
	c0.9,2.8,2.3,5.1,4.3,7.1c2,1.9,4.6,3,7.7,3.2h21.9v-8.9h-19.7c-1.7-0.1-3.1-0.7-4.2-1.9c-1.1-1.2-1.8-2.6-2.1-4.1
	c-0.3-1.5-0.4-3.2-0.4-5V322h21.3c0.7,0,1.2,0.2,1.6,0.5c0.4,0.3,0.7,0.6,0.9,0.9c0.2,0.3,0.3,0.7,0.3,1c0,0.4-0.1,0.7-0.3,1
	c-0.2,0.3-0.5,0.6-0.9,0.9c-0.4,0.3-1,0.4-1.6,0.4h-15.7v8.9h14.5c3.1,0,5.7-0.6,7.7-1.9c2-1.3,3.5-2.7,4.3-4.3s1.3-3.3,1.3-5
	C249.9,322.8,249.5,321.1,248.6,319.5z M248.6,302.8c-0.9-0.9-2.1-1.4-3.4-1.4c-1.3,0-2.5,0.5-3.4,1.4s-1.4,2.1-1.4,3.4
	c0,1.3,0.5,2.5,1.4,3.4c0.9,0.9,2.1,1.4,3.4,1.4c1.3,0,2.5-0.5,3.4-1.4c0.9-0.9,1.4-2,1.4-3.4C250,304.9,249.5,303.8,248.6,302.8z
	 M237.2,302.8c-0.9-0.9-2-1.4-3.4-1.4s-2.5,0.5-3.4,1.4c-0.9,0.9-1.4,2.1-1.4,3.4c0,1.3,0.5,2.5,1.4,3.4c0.9,0.9,2.1,1.4,3.4,1.4
	s2.5-0.5,3.4-1.4c0.9-0.9,1.4-2,1.4-3.4C238.6,304.9,238.1,303.8,237.2,302.8z M247.5,413.1c-0.9-0.8-1.9-1.2-3.1-1.2h-27.8
	c-1.2,0-2.3,0.4-3.2,1.2c-1,0.8-1.5,1.8-1.8,3v0.3c-0.2,1.8-0.6,3.4-1,4.9c-0.5,1.5-1.3,2.8-2.5,4c-1.2,1.2-2.7,1.8-4.3,1.9h-3.5
	v8.7h4.5c3-0.2,5.6-1.2,7.8-3.1c2.2-1.9,4-4.2,5.2-6.9c0.7-1.7,1.3-3.4,1.8-5.3h18.6c0.9,0,1.2,0.6,1.1,1.6l-0.6,4.2h-17.3v8.7h15.8
	c0,0.2-0.1,0.3-0.1,0.5c-0.5,1.5-1.3,2.8-2.5,4c-1.2,1.2-2.7,1.8-4.3,1.9h-8.9v8.7h10c3-0.2,5.6-1.2,7.8-3.1c2.2-1.9,4-4.2,5.2-6.9
	c1.2-2.7,2-5.6,2.4-8.7l2.1-15.2C248.8,415.1,248.4,414.1,247.5,413.1z M248.6,401.4c-0.9-0.9-2-1.4-3.3-1.4c-1.3,0-2.4,0.5-3.3,1.4
	c-0.9,0.9-1.3,2-1.3,3.3c0,1.3,0.5,2.4,1.3,3.3c0.9,0.9,2,1.3,3.3,1.3c1.3,0,2.4-0.5,3.3-1.3c0.9-0.9,1.4-2,1.4-3.3
	C249.9,403.4,249.5,402.3,248.6,401.4z M237.5,401.4c-0.9-0.9-2-1.4-3.3-1.4c-1.3,0-2.4,0.5-3.3,1.4c-0.9,0.9-1.3,2-1.3,3.3
	c0,1.3,0.5,2.4,1.3,3.3c0.9,0.9,2,1.3,3.3,1.3c1.3,0,2.4-0.5,3.3-1.3c0.9-0.9,1.4-2,1.4-3.3C238.8,403.4,238.4,402.3,237.5,401.4z
	 M239.4,503l-1.9,5c-0.7,1.9-1.4,3.7-2.3,5.4c-0.8,1.7-2.1,3.2-3.7,4.5c-1.6,1.3-3.4,2-5.3,2.1H200v9.9h21.1V547h9.9v-17.5
	c2.6-0.4,5.1-1.8,7.4-4c2.9-2.9,5.6-7.2,8-13l3.7-9.7H239.4z M231.5,627.1l9.2-15.1c0.4-0.7,0.5-1.4,0.5-2.2c0-1.2-0.4-2.3-1.3-3.2
	c-0.9-0.8-1.9-1.3-3.2-1.3H200v8.9h29.3l-6.2,10.4c-1.1,1.8-2.2,3.5-3.4,5c-1.2,1.5-2.7,2.9-4.5,4.1c-1.8,1.2-3.6,1.8-5.3,1.9h-9.7
	v8.9h10.3c3.2-0.2,6.5-1.5,9.9-4.1c2-1.5,3.9-3.5,5.8-5.8l10.6,10H250L231.5,627.1z M212.5,720.9v8.1h25v-8.1H212.5z M330.2,27.1
	l9.2-15.1c0.4-0.7,0.5-1.4,0.5-2.2c0-1.2-0.4-2.3-1.3-3.2c-0.9-0.8-2-1.3-3.2-1.3h-36.8v8.9h29.3l-6.2,10.4c-1.1,1.8-2.2,3.5-3.4,5
	c-1.2,1.5-2.7,2.9-4.5,4.1c-1.8,1.2-3.6,1.8-5.2,1.9h-9.7v8.9h10.4c3.2-0.2,6.5-1.5,9.9-4.1c2-1.5,3.9-3.5,5.8-5.8l10.6,10h13.1
	L330.2,27.1z M311.1,120.9v8.1h25v-8.1H311.1z M347.2,719.5c-0.9-1.6-2.3-3-4.3-4.3c-2-1.3-4.5-1.9-7.6-2h-0.4
	c-0.3,0-0.5-0.1-0.8-0.1h-18.9v-4.7h-9v4.7h-7.6v8.9h7.6v7.4c0,3.1,0.5,6.1,1.3,8.9c0.9,2.8,2.3,5.1,4.4,7.1c2,1.9,4.6,3,7.7,3.2
	h21.9v-8.9h-19.7c-1.7-0.1-3.1-0.7-4.2-1.9c-1.1-1.2-1.8-2.6-2.1-4.1c-0.3-1.5-0.4-3.2-0.4-5V722h21.3c0.7,0,1.2,0.2,1.6,0.5
	c0.4,0.3,0.7,0.6,0.9,0.9c0.2,0.3,0.3,0.7,0.3,1c0,0.4-0.1,0.7-0.3,1c-0.2,0.3-0.5,0.6-0.9,0.9c-0.4,0.3-1,0.4-1.6,0.4h-15.7v8.9
	h14.5c3.1,0,5.7-0.6,7.7-1.9c2-1.3,3.4-2.7,4.3-4.3c0.9-1.6,1.3-3.3,1.3-5C348.6,722.8,348.1,721.1,347.2,719.5z M347.2,702.8
	c-0.9-0.9-2-1.4-3.4-1.4c-1.3,0-2.5,0.5-3.4,1.4c-0.9,0.9-1.4,2.1-1.4,3.4c0,1.3,0.5,2.5,1.4,3.4c0.9,0.9,2.1,1.4,3.4,1.4
	c1.3,0,2.5-0.5,3.4-1.4c0.9-0.9,1.4-2,1.4-3.4C348.6,704.9,348.2,703.8,347.2,702.8z M335.8,702.8c-0.9-0.9-2.1-1.4-3.4-1.4
	c-1.3,0-2.5,0.5-3.4,1.4s-1.4,2.1-1.4,3.4c0,1.3,0.5,2.5,1.4,3.4c0.9,0.9,2.1,1.4,3.4,1.4c1.3,0,2.5-0.5,3.4-1.4
	c0.9-0.9,1.4-2,1.4-3.4C337.2,704.9,336.8,703.8,335.8,702.8z M346.2,813.1c-0.9-0.8-1.9-1.2-3.1-1.2h-27.9c-1.2,0-2.3,0.4-3.2,1.2
	c-0.9,0.8-1.5,1.8-1.7,3v0.3c-0.2,1.8-0.6,3.4-1,4.9c-0.5,1.5-1.3,2.8-2.5,4c-1.2,1.2-2.7,1.8-4.3,1.9h-3.5v8.7h4.5
	c3-0.2,5.6-1.2,7.8-3.1s4-4.2,5.2-6.9c0.7-1.7,1.3-3.4,1.8-5.3h18.6c0.9,0,1.2,0.6,1.1,1.6l-0.6,4.2h-17.3v8.7h15.8
	c0,0.2-0.1,0.3-0.1,0.5c-0.5,1.5-1.3,2.8-2.5,4c-1.2,1.2-2.7,1.8-4.3,1.9h-8.9v8.7h10c3-0.2,5.6-1.2,7.8-3.1c2.2-1.9,4-4.2,5.2-6.9
	c1.2-2.7,2-5.6,2.4-8.7l2.1-15.2C347.5,815.1,347.1,814.1,346.2,813.1z M347.2,801.4c-0.9-0.9-2-1.4-3.3-1.4c-1.3,0-2.4,0.5-3.3,1.4
	c-0.9,0.9-1.3,2-1.3,3.3c0,1.3,0.5,2.4,1.3,3.3c0.9,0.9,2,1.3,3.3,1.3c1.3,0,2.4-0.5,3.3-1.3c0.9-0.9,1.4-2,1.4-3.3
	C348.6,803.4,348.1,802.3,347.2,801.4z M336.1,801.4c-0.9-0.9-2-1.4-3.3-1.4c-1.3,0-2.4,0.5-3.3,1.4c-0.9,0.9-1.4,2-1.4,3.3
	c0,1.3,0.5,2.4,1.4,3.3c0.9,0.9,2,1.3,3.3,1.3c1.3,0,2.4-0.5,3.3-1.3c0.9-0.9,1.4-2,1.4-3.3C337.5,803.4,337,802.3,336.1,801.4z
	 M338,903l-1.9,5c-0.7,1.9-1.5,3.7-2.3,5.4c-0.8,1.7-2.1,3.2-3.7,4.5c-1.7,1.3-3.4,2-5.3,2.1h-26.2v9.9h21.1V947h9.9v-17.5
	c2.6-0.4,5.1-1.8,7.4-4c3-2.9,5.6-7.2,8-13l3.7-9.7H338z M330.2,1027.1l9.2-15.1c0.4-0.7,0.5-1.4,0.5-2.2c0-1.2-0.4-2.3-1.3-3.2
	c-0.9-0.8-2-1.3-3.2-1.3h-36.8v8.9h29.3l-6.2,10.4c-1.1,1.8-2.2,3.5-3.4,5c-1.2,1.5-2.7,2.9-4.5,4.1c-1.8,1.2-3.6,1.8-5.2,1.9h-9.7
	v8.9h10.4c3.2-0.2,6.5-1.5,9.9-4.1c2-1.5,3.9-3.4,5.8-5.8l10.6,10h13.1L330.2,1027.1z M311.1,1120.9v8.1h25v-8.1H311.1z
	 M347.2,219.5c-0.9-1.6-2.3-3-4.3-4.3c-2-1.3-4.5-1.9-7.6-2h-0.4c-0.3,0-0.5-0.1-0.8-0.1h-18.9v-4.7h-9v4.7h-7.6v8.9h7.6v7.4
	c0,3.1,0.5,6.1,1.3,8.9c0.9,2.8,2.3,5.1,4.4,7.1c2,1.9,4.6,3,7.7,3.2h21.9v-8.9h-19.7c-1.7-0.1-3.1-0.7-4.2-1.9
	c-1.1-1.2-1.8-2.6-2.1-4.1c-0.3-1.5-0.4-3.2-0.4-5V222h21.3c0.7,0,1.2,0.2,1.6,0.5c0.4,0.3,0.7,0.6,0.9,0.9c0.2,0.3,0.3,0.7,0.3,1
	c0,0.4-0.1,0.7-0.3,1c-0.2,0.3-0.5,0.6-0.9,0.9c-0.4,0.3-1,0.4-1.6,0.4h-15.7v8.9h14.5c3.1,0,5.7-0.6,7.7-1.9c2-1.3,3.4-2.7,4.3-4.3
	c0.9-1.6,1.3-3.3,1.3-5C348.6,222.8,348.1,221.1,347.2,219.5z M347.2,202.8c-0.9-0.9-2-1.4-3.4-1.4c-1.3,0-2.5,0.5-3.4,1.4
	c-0.9,0.9-1.4,2.1-1.4,3.4c0,1.3,0.5,2.5,1.4,3.4c0.9,0.9,2.1,1.4,3.4,1.4c1.3,0,2.5-0.5,3.4-1.4c0.9-0.9,1.4-2,1.4-3.4
	C348.6,204.9,348.2,203.8,347.2,202.8z M335.8,202.8c-0.9-0.9-2.1-1.4-3.4-1.4c-1.3,0-2.5,0.5-3.4,1.4s-1.4,2.1-1.4,3.4
	c0,1.3,0.5,2.5,1.4,3.4c0.9,0.9,2.1,1.4,3.4,1.4c1.3,0,2.5-0.5,3.4-1.4c0.9-0.9,1.4-2,1.4-3.4C337.2,204.9,336.8,203.8,335.8,202.8z
	 M346.2,313.1c-0.9-0.8-1.9-1.2-3.1-1.2h-27.9c-1.2,0-2.3,0.4-3.2,1.2c-0.9,0.8-1.5,1.8-1.7,3v0.3c-0.2,1.8-0.6,3.4-1,4.9
	c-0.5,1.5-1.3,2.8-2.5,4c-1.2,1.2-2.7,1.8-4.3,1.9h-3.5v8.7h4.5c3-0.2,5.6-1.2,7.8-3.1s4-4.2,5.2-6.9c0.7-1.7,1.3-3.4,1.8-5.3h18.6
	c0.9,0,1.2,0.6,1.1,1.6l-0.6,4.2h-17.3v8.7h15.8c0,0.2-0.1,0.3-0.1,0.5c-0.5,1.5-1.3,2.8-2.5,4c-1.2,1.2-2.7,1.8-4.3,1.9h-8.9v8.7
	h10c3-0.2,5.6-1.2,7.8-3.1c2.2-1.9,4-4.2,5.2-6.9c1.2-2.7,2-5.6,2.4-8.7l2.1-15.2C347.5,315.1,347.1,314.1,346.2,313.1z
	 M347.2,301.4c-0.9-0.9-2-1.4-3.3-1.4c-1.3,0-2.4,0.5-3.3,1.4c-0.9,0.9-1.3,2-1.3,3.3c0,1.3,0.5,2.4,1.3,3.3c0.9,0.9,2,1.3,3.3,1.3
	c1.3,0,2.4-0.5,3.3-1.3c0.9-0.9,1.4-2,1.4-3.3C348.6,303.4,348.1,302.3,347.2,301.4z M336.1,301.4c-0.9-0.9-2-1.4-3.3-1.4
	c-1.3,0-2.4,0.5-3.3,1.4c-0.9,0.9-1.4,2-1.4,3.3c0,1.3,0.5,2.4,1.4,3.3c0.9,0.9,2,1.3,3.3,1.3c1.3,0,2.4-0.5,3.3-1.3
	c0.9-0.9,1.4-2,1.4-3.3C337.5,303.4,337,302.3,336.1,301.4z M338,403l-1.9,5c-0.7,1.9-1.5,3.7-2.3,5.4c-0.8,1.7-2.1,3.2-3.7,4.5
	c-1.7,1.3-3.4,2-5.3,2.1h-26.2v9.9h21.1V447h9.9v-17.5c2.6-0.4,5.1-1.8,7.4-4c3-2.9,5.6-7.2,8-13l3.7-9.7H338z M330.2,527.1
	l9.2-15.1c0.4-0.7,0.5-1.4,0.5-2.2c0-1.2-0.4-2.3-1.3-3.2c-0.9-0.8-2-1.3-3.2-1.3h-36.8v8.9h29.3l-6.2,10.4c-1.1,1.8-2.2,3.5-3.4,5
	c-1.2,1.5-2.7,2.9-4.5,4.1c-1.8,1.2-3.6,1.8-5.2,1.9h-9.7v8.9h10.4c3.2-0.2,6.5-1.5,9.9-4.1c2-1.5,3.9-3.5,5.8-5.8l10.6,10h13.1
	L330.2,527.1z M311.1,620.9v8.1h25v-8.1H311.1z M348.6,1219.5c-0.9-1.6-2.3-3.1-4.3-4.3c-2-1.3-4.5-1.9-7.6-2h-0.4
	c-0.3,0-0.5-0.1-0.8-0.1h-18.9v-4.7h-9v4.7H300v8.9h7.6v7.4c0,3.1,0.5,6.1,1.3,8.9c0.9,2.8,2.3,5.1,4.3,7.1c2,1.9,4.6,3,7.7,3.2
	h21.9v-8.9h-19.7c-1.7-0.1-3.1-0.7-4.2-1.9c-1.1-1.2-1.8-2.6-2.1-4.1c-0.3-1.5-0.4-3.2-0.4-5v-6.6h21.3c0.7,0.1,1.2,0.2,1.6,0.5
	c0.4,0.3,0.7,0.6,0.9,0.9c0.2,0.3,0.3,0.7,0.3,1c0,0.3-0.1,0.7-0.3,1c-0.2,0.3-0.5,0.6-0.9,0.9c-0.4,0.3-1,0.4-1.6,0.4h-15.7v8.9
	h14.5c3.1,0,5.7-0.6,7.7-1.9c2-1.3,3.5-2.7,4.3-4.3s1.3-3.3,1.3-5C349.9,1222.8,349.5,1221.1,348.6,1219.5z M348.6,1202.8
	c-0.9-0.9-2.1-1.4-3.4-1.4c-1.3,0-2.5,0.5-3.4,1.4c-0.9,0.9-1.4,2.1-1.4,3.4c0,1.3,0.5,2.5,1.4,3.4c0.9,0.9,2.1,1.4,3.4,1.4
	c1.3,0,2.5-0.5,3.4-1.4c0.9-0.9,1.4-2,1.4-3.4C350,1204.9,349.5,1203.8,348.6,1202.8z M337.2,1202.8c-0.9-0.9-2-1.4-3.4-1.4
	s-2.5,0.5-3.4,1.4c-0.9,0.9-1.4,2.1-1.4,3.4c0,1.3,0.5,2.5,1.4,3.4c0.9,0.9,2.1,1.4,3.4,1.4s2.5-0.5,3.4-1.4c0.9-0.9,1.4-2,1.4-3.4
	C338.6,1204.9,338.1,1203.8,337.2,1202.8z M412.5,20.9v8.1h25v-8.1H412.5z M448.6,619.5c-0.9-1.6-2.3-3-4.3-4.3
	c-2-1.3-4.5-1.9-7.6-2h-0.4c-0.3,0-0.5-0.1-0.8-0.1h-18.9v-4.7h-9v4.7H400v8.9h7.6v7.4c0,3.1,0.5,6.1,1.3,8.9
	c0.9,2.8,2.3,5.1,4.3,7.1c2,1.9,4.6,3,7.7,3.2h21.9v-8.9h-19.7c-1.7-0.1-3.1-0.7-4.2-1.9c-1.1-1.2-1.8-2.6-2.1-4.1
	c-0.3-1.5-0.4-3.2-0.4-5V622h21.3c0.7,0,1.2,0.2,1.6,0.5c0.4,0.3,0.7,0.6,0.9,0.9c0.2,0.3,0.3,0.7,0.3,1c0,0.4-0.1,0.7-0.3,1
	c-0.2,0.3-0.5,0.6-0.9,0.9c-0.4,0.3-1,0.4-1.6,0.4h-15.7v8.9h14.5c3.1,0,5.7-0.6,7.7-1.9c2-1.3,3.5-2.7,4.3-4.3s1.3-3.3,1.3-5
	C449.9,622.8,449.5,621.1,448.6,619.5z M448.6,602.8c-0.9-0.9-2.1-1.4-3.4-1.4c-1.3,0-2.5,0.5-3.4,1.4s-1.4,2.1-1.4,3.4
	c0,1.3,0.5,2.5,1.4,3.4c0.9,0.9,2.1,1.4,3.4,1.4c1.3,0,2.5-0.5,3.4-1.4c0.9-0.9,1.4-2,1.4-3.4C450,604.9,449.5,603.8,448.6,602.8z
	 M437.2,602.8c-0.9-0.9-2-1.4-3.4-1.4s-2.5,0.5-3.4,1.4c-0.9,0.9-1.4,2.1-1.4,3.4c0,1.3,0.5,2.5,1.4,3.4c0.9,0.9,2.1,1.4,3.4,1.4
	s2.5-0.5,3.4-1.4c0.9-0.9,1.4-2,1.4-3.4C438.6,604.9,438.1,603.8,437.2,602.8z M447.5,713.1c-0.9-0.8-1.9-1.2-3.1-1.2h-27.8
	c-1.2,0-2.3,0.4-3.2,1.2c-1,0.8-1.5,1.8-1.8,3v0.3c-0.2,1.8-0.6,3.4-1,4.9c-0.5,1.5-1.3,2.8-2.5,4c-1.2,1.2-2.7,1.8-4.3,1.9h-3.5
	v8.7h4.5c3-0.2,5.6-1.2,7.8-3.1c2.2-1.9,4-4.2,5.2-6.9c0.7-1.7,1.3-3.4,1.8-5.3h18.6c0.9,0,1.2,0.6,1.1,1.6l-0.6,4.2h-17.3v8.7h15.8
	c0,0.2-0.1,0.3-0.1,0.5c-0.5,1.5-1.3,2.8-2.5,4c-1.2,1.2-2.7,1.8-4.3,1.9h-8.9v8.7h10c3-0.2,5.6-1.2,7.8-3.1c2.2-1.9,4-4.2,5.2-6.9
	c1.2-2.7,2-5.6,2.4-8.7l2.1-15.2C448.8,715.1,448.4,714.1,447.5,713.1z M448.6,701.4c-0.9-0.9-2-1.4-3.3-1.4c-1.3,0-2.4,0.5-3.3,1.4
	c-0.9,0.9-1.3,2-1.3,3.3c0,1.3,0.5,2.4,1.3,3.3c0.9,0.9,2,1.3,3.3,1.3c1.3,0,2.4-0.5,3.3-1.3c0.9-0.9,1.4-2,1.4-3.3
	C449.9,703.4,449.5,702.3,448.6,701.4z M437.5,701.4c-0.9-0.9-2-1.4-3.3-1.4c-1.3,0-2.4,0.5-3.3,1.4c-0.9,0.9-1.3,2-1.3,3.3
	c0,1.3,0.5,2.4,1.3,3.3c0.9,0.9,2,1.3,3.3,1.3c1.3,0,2.4-0.5,3.3-1.3c0.9-0.9,1.4-2,1.4-3.3C438.8,703.4,438.4,702.3,437.5,701.4z
	 M439.4,803l-1.9,5c-0.7,1.9-1.4,3.7-2.3,5.4c-0.8,1.7-2.1,3.2-3.7,4.5c-1.6,1.3-3.4,2-5.3,2.1H400v9.9h21.1V847h9.9v-17.5
	c2.6-0.4,5.1-1.8,7.4-4c2.9-2.9,5.6-7.2,8-13l3.7-9.7H439.4z M431.5,927.1l9.2-15.1c0.4-0.7,0.5-1.4,0.5-2.2c0-1.2-0.4-2.3-1.3-3.2
	c-0.9-0.8-1.9-1.3-3.2-1.3H400v8.9h29.3l-6.2,10.4c-1.1,1.8-2.2,3.5-3.4,5c-1.2,1.5-2.7,2.9-4.5,4.1c-1.8,1.2-3.6,1.8-5.3,1.9h-9.7
	v8.9h10.3c3.2-0.2,6.5-1.5,9.9-4.1c2-1.5,3.9-3.5,5.8-5.8l10.6,10H450L431.5,927.1z M412.5,1020.9v8.1h25v-8.1H412.5z M448.6,119.5
	c-0.9-1.6-2.3-3-4.3-4.3c-2-1.3-4.5-1.9-7.6-2h-0.4c-0.3,0-0.5-0.1-0.8-0.1h-18.9v-4.7h-9v4.7H400v8.9h7.6v7.4
	c0,3.1,0.5,6.1,1.3,8.9c0.9,2.8,2.3,5.1,4.3,7.1c2,1.9,4.6,3,7.7,3.2h21.9v-8.9h-19.7c-1.7-0.1-3.1-0.7-4.2-1.9
	c-1.1-1.2-1.8-2.6-2.1-4.1c-0.3-1.5-0.4-3.2-0.4-5V122h21.3c0.7,0,1.2,0.2,1.6,0.5c0.4,0.3,0.7,0.6,0.9,0.9c0.2,0.3,0.3,0.7,0.3,1
	c0,0.4-0.1,0.7-0.3,1c-0.2,0.3-0.5,0.6-0.9,0.9c-0.4,0.3-1,0.4-1.6,0.4h-15.7v8.9h14.5c3.1,0,5.7-0.6,7.7-1.9c2-1.3,3.5-2.7,4.3-4.3
	s1.3-3.3,1.3-5C449.9,122.8,449.5,121.1,448.6,119.5z M448.6,102.8c-0.9-0.9-2.1-1.4-3.4-1.4c-1.3,0-2.5,0.5-3.4,1.4
	s-1.4,2.1-1.4,3.4c0,1.3,0.5,2.5,1.4,3.4c0.9,0.9,2.1,1.4,3.4,1.4c1.3,0,2.5-0.5,3.4-1.4c0.9-0.9,1.4-2,1.4-3.4
	C450,104.9,449.5,103.8,448.6,102.8z M437.2,102.8c-0.9-0.9-2-1.4-3.4-1.4s-2.5,0.5-3.4,1.4c-0.9,0.9-1.4,2.1-1.4,3.4
	c0,1.3,0.5,2.5,1.4,3.4c0.9,0.9,2.1,1.4,3.4,1.4s2.5-0.5,3.4-1.4c0.9-0.9,1.4-2,1.4-3.4C438.6,104.9,438.1,103.8,437.2,102.8z
	 M447.5,213.1c-0.9-0.8-1.9-1.2-3.1-1.2h-27.8c-1.2,0-2.3,0.4-3.2,1.2c-1,0.8-1.5,1.8-1.8,3v0.3c-0.2,1.8-0.6,3.4-1,4.9
	c-0.5,1.5-1.3,2.8-2.5,4c-1.2,1.2-2.7,1.8-4.3,1.9h-3.5v8.7h4.5c3-0.2,5.6-1.2,7.8-3.1c2.2-1.9,4-4.2,5.2-6.9
	c0.7-1.7,1.3-3.4,1.8-5.3h18.6c0.9,0,1.2,0.6,1.1,1.6l-0.6,4.2h-17.3v8.7h15.8c0,0.2-0.1,0.3-0.1,0.5c-0.5,1.5-1.3,2.8-2.5,4
	c-1.2,1.2-2.7,1.8-4.3,1.9h-8.9v8.7h10c3-0.2,5.6-1.2,7.8-3.1c2.2-1.9,4-4.2,5.2-6.9c1.2-2.7,2-5.6,2.4-8.7l2.1-15.2
	C448.8,215.1,448.4,214.1,447.5,213.1z M448.6,201.4c-0.9-0.9-2-1.4-3.3-1.4c-1.3,0-2.4,0.5-3.3,1.4c-0.9,0.9-1.3,2-1.3,3.3
	c0,1.3,0.5,2.4,1.3,3.3c0.9,0.9,2,1.3,3.3,1.3c1.3,0,2.4-0.5,3.3-1.3c0.9-0.9,1.4-2,1.4-3.3C449.9,203.4,449.5,202.3,448.6,201.4z
	 M437.5,201.4c-0.9-0.9-2-1.4-3.3-1.4c-1.3,0-2.4,0.5-3.3,1.4c-0.9,0.9-1.3,2-1.3,3.3c0,1.3,0.5,2.4,1.3,3.3c0.9,0.9,2,1.3,3.3,1.3
	c1.3,0,2.4-0.5,3.3-1.3c0.9-0.9,1.4-2,1.4-3.3C438.8,203.4,438.4,202.3,437.5,201.4z M439.4,303l-1.9,5c-0.7,1.9-1.4,3.7-2.3,5.4
	c-0.8,1.7-2.1,3.2-3.7,4.5c-1.6,1.3-3.4,2-5.3,2.1H400v9.9h21.1V347h9.9v-17.5c2.6-0.4,5.1-1.8,7.4-4c2.9-2.9,5.6-7.2,8-13l3.7-9.7
	H439.4z M431.5,427.1l9.2-15.1c0.4-0.7,0.5-1.4,0.5-2.2c0-1.2-0.4-2.3-1.3-3.2c-0.9-0.8-1.9-1.3-3.2-1.3H400v8.9h29.3l-6.2,10.4
	c-1.1,1.8-2.2,3.5-3.4,5c-1.2,1.5-2.7,2.9-4.5,4.1c-1.8,1.2-3.6,1.8-5.3,1.9h-9.7v8.9h10.3c3.2-0.2,6.5-1.5,9.9-4.1
	c2-1.5,3.9-3.5,5.8-5.8l10.6,10H450L431.5,427.1z M412.5,520.9v8.1h25v-8.1H412.5z M450,1119.5c-0.9-1.6-2.3-3.1-4.3-4.3
	c-2-1.3-4.5-1.9-7.6-2h-0.4c-0.3,0-0.5-0.1-0.8-0.1H418v-4.7h-9v4.7h-7.6v8.9h7.6v7.4c0,3.1,0.5,6.1,1.3,8.9
	c0.9,2.8,2.3,5.1,4.3,7.1c2,1.9,4.6,3,7.7,3.2h21.9v-8.9h-19.7c-1.7-0.1-3.1-0.7-4.2-1.9c-1.1-1.2-1.8-2.6-2.1-4.1
	c-0.3-1.5-0.4-3.2-0.4-5v-6.6h21.3c0.7,0.1,1.2,0.2,1.6,0.5c0.4,0.3,0.7,0.6,0.9,0.9c0.2,0.3,0.3,0.7,0.3,1c0,0.3-0.1,0.7-0.3,1
	c-0.2,0.3-0.5,0.6-0.9,0.9c-0.4,0.3-1,0.4-1.6,0.4h-15.7v8.9H438c3.1,0,5.7-0.6,7.7-1.9c2-1.3,3.5-2.7,4.3-4.3s1.3-3.3,1.3-5
	C451.3,1122.8,450.8,1121.1,450,1119.5z M450,1102.8c-0.9-0.9-2.1-1.4-3.4-1.4c-1.3,0-2.5,0.5-3.4,1.4c-0.9,0.9-1.4,2.1-1.4,3.4
	c0,1.3,0.5,2.5,1.4,3.4c0.9,0.9,2.1,1.4,3.4,1.4c1.3,0,2.5-0.5,3.4-1.4c0.9-0.9,1.4-2,1.4-3.4C451.4,1104.9,450.9,1103.8,450,1102.8
	z M438.5,1102.8c-0.9-0.9-2.1-1.4-3.4-1.4c-1.3,0-2.5,0.5-3.4,1.4c-0.9,0.9-1.4,2.1-1.4,3.4c0,1.3,0.5,2.5,1.4,3.4
	c0.9,0.9,2.1,1.4,3.4,1.4c1.3,0,2.5-0.5,3.4-1.4c0.9-0.9,1.4-2,1.4-3.4C439.9,1104.9,439.5,1103.8,438.5,1102.8z M448.9,1213.1
	c-0.9-0.8-1.9-1.2-3.1-1.2H418c-1.2,0-2.3,0.4-3.2,1.2c-0.9,0.8-1.5,1.8-1.8,3v0.3c-0.2,1.8-0.6,3.4-1,4.9c-0.5,1.5-1.3,2.8-2.5,4
	c-1.2,1.2-2.7,1.8-4.3,1.9h-3.5v8.7h4.5c3-0.2,5.6-1.2,7.8-3.1c2.2-1.9,4-4.2,5.2-6.9c0.7-1.7,1.3-3.4,1.8-5.3h18.6
	c0.9,0,1.2,0.6,1.1,1.6l-0.6,4.2h-17.3v8.7h15.8c0,0.2-0.1,0.3-0.1,0.5c-0.5,1.5-1.3,2.8-2.6,4c-1.2,1.2-2.7,1.8-4.3,1.9h-8.9v8.7
	h10c3-0.2,5.6-1.2,7.9-3.1c2.2-1.9,3.9-4.2,5.2-6.9c1.2-2.7,2-5.6,2.4-8.7l2.1-15.2C450.2,1215.1,449.8,1214.1,448.9,1213.1z
	 M449.9,1201.4c-0.9-0.9-2-1.4-3.3-1.4s-2.4,0.4-3.3,1.4c-0.9,0.9-1.4,2-1.4,3.3c0,1.3,0.5,2.4,1.4,3.3c0.9,0.9,2,1.4,3.3,1.4
	s2.4-0.5,3.3-1.4c0.9-0.9,1.4-2,1.4-3.3C451.3,1203.4,450.8,1202.3,449.9,1201.4z M438.8,1201.4c-0.9-0.9-2-1.4-3.3-1.4
	c-1.3,0-2.4,0.4-3.3,1.4c-0.9,0.9-1.3,2-1.3,3.3c0,1.3,0.5,2.4,1.3,3.3c0.9,0.9,2,1.4,3.3,1.4c1.3,0,2.4-0.5,3.3-1.4
	c0.9-0.9,1.4-2,1.4-3.3C440.2,1203.4,439.7,1202.3,438.8,1201.4z M548.6,18.2c-0.9-1.6-2.3-3.1-4.3-4.3c-2-1.3-4.5-1.9-7.6-2h-0.4
	c-0.3,0-0.5-0.1-0.8-0.1h-18.9V7h-9v4.7H500v8.9h7.6v7.4c0,3.2,0.5,6.1,1.3,8.9c0.9,2.8,2.3,5.2,4.3,7.1c2,1.9,4.6,3,7.7,3.2h21.9
	v-8.9h-19.7c-1.7-0.1-3.1-0.7-4.2-1.9c-1.1-1.2-1.8-2.6-2.1-4.1c-0.3-1.5-0.4-3.2-0.4-5v-6.6h21.3c0.7,0,1.2,0.2,1.6,0.5
	c0.4,0.3,0.7,0.6,0.9,0.9c0.2,0.3,0.3,0.7,0.3,1c0,0.3-0.1,0.7-0.3,1c-0.2,0.3-0.5,0.6-0.9,0.9c-0.4,0.3-1,0.4-1.6,0.4h-15.7v8.9
	h14.5c3.1,0,5.7-0.6,7.7-1.9c2-1.3,3.5-2.7,4.3-4.3c0.9-1.6,1.3-3.3,1.3-4.9C549.9,21.4,549.5,19.8,548.6,18.2z M548.6,1.5
	c-0.9-0.9-2.1-1.4-3.4-1.4c-1.3,0-2.5,0.5-3.4,1.4s-1.4,2-1.4,3.4s0.5,2.5,1.4,3.4s2.1,1.4,3.4,1.4c1.3,0,2.5-0.5,3.4-1.4
	s1.4-2.1,1.4-3.4S549.5,2.4,548.6,1.5z M537.2,1.5c-0.9-0.9-2-1.4-3.4-1.4s-2.5,0.5-3.4,1.4c-0.9,0.9-1.4,2-1.4,3.4s0.5,2.5,1.4,3.4
	c0.9,0.9,2.1,1.4,3.4,1.4s2.5-0.5,3.4-1.4s1.4-2.1,1.4-3.4S538.1,2.4,537.2,1.5z M547.5,111.8c-0.9-0.8-1.9-1.2-3.1-1.2h-27.8
	c-1.2,0-2.3,0.4-3.2,1.2c-1,0.8-1.5,1.8-1.8,3v0.3c-0.2,1.8-0.6,3.4-1,4.9c-0.5,1.5-1.3,2.8-2.5,4c-1.2,1.2-2.7,1.8-4.3,1.9h-3.5
	v8.7h4.5c3-0.2,5.6-1.2,7.8-3.1c2.2-1.9,4-4.2,5.2-6.9c0.7-1.7,1.3-3.4,1.8-5.3h18.6c0.9,0,1.2,0.6,1.1,1.6l-0.6,4.2h-17.3v8.7h15.8
	c0,0.2-0.1,0.3-0.1,0.5c-0.5,1.5-1.3,2.8-2.5,4c-1.2,1.2-2.7,1.8-4.3,1.9h-8.9v8.7h10c3-0.2,5.6-1.2,7.8-3.1c2.2-1.9,4-4.2,5.2-6.9
	c1.2-2.7,2-5.6,2.4-8.7l2.1-15.2C548.8,113.7,548.4,112.7,547.5,111.8z M548.6,100c-0.9-0.9-2-1.4-3.3-1.4c-1.3,0-2.4,0.5-3.3,1.4
	c-0.9,0.9-1.3,2-1.3,3.3c0,1.3,0.5,2.4,1.3,3.3c0.9,0.9,2,1.4,3.3,1.4c1.3,0,2.4-0.5,3.3-1.4c0.9-0.9,1.4-2,1.4-3.3
	C549.9,102,549.5,100.9,548.6,100z M537.5,100c-0.9-0.9-2-1.4-3.3-1.4c-1.3,0-2.4,0.5-3.3,1.4c-0.9,0.9-1.3,2-1.3,3.3
	c0,1.3,0.5,2.4,1.3,3.3c0.9,0.9,2,1.4,3.3,1.4c1.3,0,2.4-0.5,3.3-1.4c0.9-0.9,1.4-2,1.4-3.3C538.8,102,538.4,100.9,537.5,100z
	 M539.4,201.6l-1.9,5c-0.7,1.9-1.4,3.7-2.3,5.4c-0.8,1.7-2.1,3.2-3.7,4.5c-1.6,1.3-3.4,2-5.3,2.1H500v9.9h21.1v17.2h9.9v-17.5
	c2.6-0.5,5.1-1.8,7.4-4c2.9-2.8,5.6-7.2,8-13l3.7-9.7H539.4z M531.5,325.8l9.2-15.1c0.4-0.7,0.5-1.4,0.5-2.2c0-1.2-0.4-2.3-1.3-3.2
	c-0.9-0.8-1.9-1.3-3.2-1.3H500v8.9h29.3l-6.2,10.4c-1.1,1.8-2.2,3.5-3.4,5c-1.2,1.5-2.7,2.9-4.5,4.1c-1.8,1.2-3.6,1.8-5.3,1.9h-9.7
	v8.9h10.3c3.2-0.2,6.5-1.5,9.9-4.1c2-1.5,3.9-3.5,5.8-5.8l10.6,10H550L531.5,325.8z M512.5,419.6v8.1h25v-8.1H512.5z M548.6,1018.2
	c-0.9-1.6-2.3-3.1-4.3-4.3c-2-1.3-4.5-1.9-7.6-2h-0.4c-0.3,0-0.5-0.1-0.8-0.1h-18.9v-4.7h-9v4.7H500v8.9h7.6v7.4
	c0,3.2,0.5,6.1,1.3,8.9c0.9,2.8,2.3,5.2,4.3,7.1c2,1.9,4.6,3,7.7,3.2h21.9v-8.9h-19.7c-1.7-0.1-3.1-0.7-4.2-1.9
	c-1.1-1.2-1.8-2.6-2.1-4.1c-0.3-1.5-0.4-3.2-0.4-5v-6.6h21.3c0.7,0,1.2,0.2,1.6,0.5c0.4,0.3,0.7,0.6,0.9,0.9c0.2,0.3,0.3,0.7,0.3,1
	c0,0.3-0.1,0.7-0.3,1c-0.2,0.3-0.5,0.6-0.9,0.9c-0.4,0.3-1,0.4-1.6,0.4h-15.7v8.9h14.5c3.1,0,5.7-0.6,7.7-1.9c2-1.3,3.5-2.7,4.3-4.3
	c0.9-1.6,1.3-3.3,1.3-4.9C549.9,1021.4,549.5,1019.8,548.6,1018.2z M548.6,1001.5c-0.9-0.9-2.1-1.4-3.4-1.4c-1.3,0-2.5,0.5-3.4,1.4
	s-1.4,2-1.4,3.4s0.5,2.5,1.4,3.4s2.1,1.4,3.4,1.4c1.3,0,2.5-0.5,3.4-1.4s1.4-2.1,1.4-3.4S549.5,1002.4,548.6,1001.5z M537.2,1001.5
	c-0.9-0.9-2-1.4-3.4-1.4s-2.5,0.5-3.4,1.4c-0.9,0.9-1.4,2-1.4,3.4s0.5,2.5,1.4,3.4c0.9,0.9,2.1,1.4,3.4,1.4s2.5-0.5,3.4-1.4
	s1.4-2.1,1.4-3.4S538.1,1002.4,537.2,1001.5z M547.5,1111.8c-0.9-0.8-1.9-1.2-3.1-1.2h-27.8c-1.2,0-2.3,0.4-3.2,1.2
	c-1,0.8-1.5,1.8-1.8,3v0.3c-0.2,1.8-0.6,3.4-1,4.9c-0.5,1.5-1.3,2.8-2.5,4c-1.2,1.2-2.7,1.8-4.3,1.9h-3.5v8.6h4.5
	c3-0.2,5.6-1.2,7.8-3.1c2.2-1.9,4-4.2,5.2-6.9c0.7-1.7,1.3-3.4,1.8-5.3h18.6c0.9,0,1.2,0.6,1.1,1.6l-0.6,4.2h-17.3v8.7h15.8
	c0,0.2-0.1,0.3-0.1,0.5c-0.5,1.5-1.3,2.8-2.5,4c-1.2,1.2-2.7,1.8-4.3,1.9h-8.9v8.7h10c3-0.2,5.6-1.2,7.8-3.1c2.2-1.9,4-4.2,5.2-6.9
	c1.2-2.7,2-5.6,2.4-8.7l2.1-15.2C548.8,1113.7,548.4,1112.7,547.5,1111.8z M548.6,1100c-0.9-0.9-2-1.4-3.3-1.4
	c-1.3,0-2.4,0.5-3.3,1.4c-0.9,0.9-1.3,2-1.3,3.3c0,1.3,0.5,2.4,1.3,3.3c0.9,0.9,2,1.4,3.3,1.4c1.3,0,2.4-0.5,3.3-1.4
	c0.9-0.9,1.4-2,1.4-3.3C549.9,1102,549.5,1100.9,548.6,1100z M537.5,1100c-0.9-0.9-2-1.4-3.3-1.4c-1.3,0-2.4,0.5-3.3,1.4
	c-0.9,0.9-1.3,2-1.3,3.3c0,1.3,0.5,2.4,1.3,3.3c0.9,0.9,2,1.4,3.3,1.4c1.3,0,2.4-0.5,3.3-1.4c0.9-0.9,1.4-2,1.4-3.3
	C538.8,1102,538.4,1100.9,537.5,1100z M539.4,1201.6l-1.9,5c-0.7,1.9-1.4,3.7-2.3,5.4c-0.8,1.7-2.1,3.2-3.7,4.5
	c-1.6,1.3-3.4,2-5.3,2.1H500v9.9h21.1v17.2h9.9v-17.4c2.6-0.4,5.1-1.8,7.4-4c2.9-2.9,5.6-7.2,8-13l3.7-9.7H539.4z M548.6,518.2
	c-0.9-1.6-2.3-3.1-4.3-4.3c-2-1.3-4.5-1.9-7.6-2h-0.4c-0.3,0-0.5-0.1-0.8-0.1h-18.9V507h-9v4.7H500v8.9h7.6v7.4
	c0,3.2,0.5,6.1,1.3,8.9c0.9,2.8,2.3,5.2,4.3,7.1c2,1.9,4.6,3,7.7,3.2h21.9v-8.9h-19.7c-1.7-0.1-3.1-0.7-4.2-1.9
	c-1.1-1.2-1.8-2.6-2.1-4.1c-0.3-1.5-0.4-3.2-0.4-5v-6.6h21.3c0.7,0,1.2,0.2,1.6,0.5c0.4,0.3,0.7,0.6,0.9,0.9c0.2,0.3,0.3,0.7,0.3,1
	c0,0.3-0.1,0.7-0.3,1c-0.2,0.3-0.5,0.6-0.9,0.9c-0.4,0.3-1,0.4-1.6,0.4h-15.7v8.9h14.5c3.1,0,5.7-0.6,7.7-1.9c2-1.3,3.5-2.7,4.3-4.3
	c0.9-1.6,1.3-3.3,1.3-4.9C549.9,521.4,549.5,519.8,548.6,518.2z M548.6,501.5c-0.9-0.9-2.1-1.4-3.4-1.4c-1.3,0-2.5,0.5-3.4,1.4
	s-1.4,2-1.4,3.4s0.5,2.5,1.4,3.4s2.1,1.4,3.4,1.4c1.3,0,2.5-0.5,3.4-1.4s1.4-2.1,1.4-3.4S549.5,502.4,548.6,501.5z M537.2,501.5
	c-0.9-0.9-2-1.4-3.4-1.4s-2.5,0.5-3.4,1.4c-0.9,0.9-1.4,2-1.4,3.4s0.5,2.5,1.4,3.4c0.9,0.9,2.1,1.4,3.4,1.4s2.5-0.5,3.4-1.4
	s1.4-2.1,1.4-3.4S538.1,502.4,537.2,501.5z M547.5,611.8c-0.9-0.8-1.9-1.2-3.1-1.2h-27.8c-1.2,0-2.3,0.4-3.2,1.2
	c-1,0.8-1.5,1.8-1.8,3v0.3c-0.2,1.8-0.6,3.4-1,4.9c-0.5,1.5-1.3,2.8-2.5,4c-1.2,1.2-2.7,1.8-4.3,1.9h-3.5v8.7h4.5
	c3-0.2,5.6-1.2,7.8-3.1c2.2-1.9,4-4.2,5.2-6.9c0.7-1.7,1.3-3.4,1.8-5.3h18.6c0.9,0,1.2,0.6,1.1,1.6l-0.6,4.2h-17.3v8.7h15.8
	c0,0.2-0.1,0.3-0.1,0.5c-0.5,1.5-1.3,2.8-2.5,4c-1.2,1.2-2.7,1.8-4.3,1.9h-8.9v8.7h10c3-0.2,5.6-1.2,7.8-3.1c2.2-1.9,4-4.2,5.2-6.9
	c1.2-2.7,2-5.6,2.4-8.7l2.1-15.2C548.8,613.7,548.4,612.7,547.5,611.8z M548.6,600c-0.9-0.9-2-1.4-3.3-1.4c-1.3,0-2.4,0.5-3.3,1.4
	c-0.9,0.9-1.3,2-1.3,3.3c0,1.3,0.5,2.4,1.3,3.3c0.9,0.9,2,1.4,3.3,1.4c1.3,0,2.4-0.5,3.3-1.4c0.9-0.9,1.4-2,1.4-3.3
	C549.9,602,549.5,600.9,548.6,600z M537.5,600c-0.9-0.9-2-1.4-3.3-1.4c-1.3,0-2.4,0.5-3.3,1.4c-0.9,0.9-1.3,2-1.3,3.3
	c0,1.3,0.5,2.4,1.3,3.3c0.9,0.9,2,1.4,3.3,1.4c1.3,0,2.4-0.5,3.3-1.4c0.9-0.9,1.4-2,1.4-3.3C538.8,602,538.4,600.9,537.5,600z
	 M539.4,701.6l-1.9,5c-0.7,1.9-1.4,3.7-2.3,5.4c-0.8,1.7-2.1,3.2-3.7,4.5c-1.6,1.3-3.4,2-5.3,2.1H500v9.9h21.1v17.2h9.9v-17.5
	c2.6-0.5,5.1-1.8,7.4-4c2.9-2.8,5.6-7.2,8-13l3.7-9.7H539.4z M531.5,825.8l9.2-15.1c0.4-0.7,0.5-1.4,0.5-2.2c0-1.2-0.4-2.3-1.3-3.2
	c-0.9-0.8-1.9-1.3-3.2-1.3H500v8.9h29.3l-6.2,10.4c-1.1,1.8-2.2,3.5-3.4,5c-1.2,1.5-2.7,2.9-4.5,4.1c-1.8,1.2-3.6,1.8-5.3,1.9h-9.7
	v8.9h10.3c3.2-0.2,6.5-1.5,9.9-4.1c2-1.5,3.9-3.5,5.8-5.8l10.6,10H550L531.5,825.8z M512.5,919.6v8.1h25v-8.1H512.5z M647.5,11.8
	c-0.9-0.8-1.9-1.2-3.1-1.2h-27.8c-1.2,0-2.3,0.4-3.2,1.2c-1,0.8-1.5,1.8-1.8,3V15c-0.2,1.8-0.6,3.4-1,4.9c-0.5,1.5-1.3,2.8-2.5,4
	c-1.2,1.2-2.7,1.8-4.3,1.9h-3.5v8.7h4.5c3-0.2,5.6-1.2,7.8-3.1c2.2-1.9,4-4.2,5.2-6.9c0.7-1.7,1.3-3.4,1.8-5.3h18.6
	c0.9,0,1.2,0.6,1.1,1.6l-0.6,4.2h-17.3v8.7h15.8c0,0.2-0.1,0.3-0.1,0.5c-0.5,1.5-1.3,2.8-2.5,4c-1.2,1.2-2.7,1.8-4.3,1.9h-8.9v8.7
	h10c3-0.2,5.6-1.2,7.8-3.1c2.2-1.9,4-4.2,5.2-6.9c1.2-2.7,2-5.6,2.4-8.7l2.1-15.2C648.8,13.7,648.4,12.7,647.5,11.8z M648.6,0
	c-0.9-0.9-2-1.4-3.3-1.4c-1.3,0-2.4,0.5-3.3,1.4c-0.9,0.9-1.3,2-1.3,3.3c0,1.3,0.5,2.4,1.3,3.3c0.9,0.9,2,1.4,3.3,1.4
	c1.3,0,2.4-0.5,3.3-1.4c0.9-0.9,1.4-2,1.4-3.3C649.9,2,649.5,0.9,648.6,0z M637.5,0c-0.9-0.9-2-1.4-3.3-1.4c-1.3,0-2.4,0.5-3.3,1.4
	c-0.9,0.9-1.3,2-1.3,3.3c0,1.3,0.5,2.4,1.3,3.3c0.9,0.9,2,1.4,3.3,1.4c1.3,0,2.4-0.5,3.3-1.4c0.9-0.9,1.4-2,1.4-3.3
	C638.8,2,638.4,0.9,637.5,0z M639.4,101.6l-1.9,5c-0.7,1.9-1.4,3.7-2.3,5.4c-0.8,1.7-2.1,3.2-3.7,4.5c-1.6,1.3-3.4,2-5.3,2.1H600
	v9.9h21.1v17.2h9.9v-17.5c2.6-0.5,5.1-1.8,7.4-4c2.9-2.8,5.6-7.2,8-13l3.7-9.7H639.4z M631.5,225.8l9.2-15.1
	c0.4-0.7,0.5-1.4,0.5-2.2c0-1.2-0.4-2.3-1.3-3.2c-0.9-0.8-1.9-1.3-3.2-1.3H600v8.9h29.3l-6.2,10.4c-1.1,1.8-2.2,3.5-3.4,5
	c-1.2,1.5-2.7,2.9-4.5,4.1c-1.8,1.2-3.6,1.8-5.3,1.9h-9.7v8.9h10.3c3.2-0.2,6.5-1.5,9.9-4.1c2-1.5,3.9-3.5,5.8-5.8l10.6,10H650
	L631.5,225.8z M612.5,319.6v8.1h25v-8.1H612.5z M648.6,918.2c-0.9-1.6-2.3-3.1-4.3-4.3c-2-1.3-4.5-1.9-7.6-2h-0.4
	c-0.3,0-0.5-0.1-0.8-0.1h-18.9V907h-9v4.7H600v8.9h7.6v7.4c0,3.2,0.5,6.1,1.3,8.9c0.9,2.8,2.3,5.2,4.3,7.1c2,1.9,4.6,3,7.7,3.2h21.9
	v-8.9h-19.7c-1.7-0.1-3.1-0.7-4.2-1.9c-1.1-1.2-1.8-2.6-2.1-4.1c-0.3-1.5-0.4-3.2-0.4-5v-6.6h21.3c0.7,0,1.2,0.2,1.6,0.5
	c0.4,0.3,0.7,0.6,0.9,0.9c0.2,0.3,0.3,0.7,0.3,1c0,0.3-0.1,0.7-0.3,1c-0.2,0.3-0.5,0.6-0.9,0.9c-0.4,0.3-1,0.4-1.6,0.4h-15.7v8.9
	h14.5c3.1,0,5.7-0.6,7.7-1.9c2-1.3,3.5-2.7,4.3-4.3c0.9-1.6,1.3-3.3,1.3-4.9C649.9,921.4,649.5,919.8,648.6,918.2z M648.6,901.5
	c-0.9-0.9-2.1-1.4-3.4-1.4c-1.3,0-2.5,0.5-3.4,1.4s-1.4,2-1.4,3.4s0.5,2.5,1.4,3.4s2.1,1.4,3.4,1.4c1.3,0,2.5-0.5,3.4-1.4
	s1.4-2.1,1.4-3.4S649.5,902.4,648.6,901.5z M637.2,901.5c-0.9-0.9-2-1.4-3.4-1.4s-2.5,0.5-3.4,1.4c-0.9,0.9-1.4,2-1.4,3.4
	s0.5,2.5,1.4,3.4c0.9,0.9,2.1,1.4,3.4,1.4s2.5-0.5,3.4-1.4s1.4-2.1,1.4-3.4S638.1,902.4,637.2,901.5z M647.5,1011.8
	c-0.9-0.8-1.9-1.2-3.1-1.2h-27.8c-1.2,0-2.3,0.4-3.2,1.2c-1,0.8-1.5,1.8-1.8,3v0.3c-0.2,1.8-0.6,3.4-1,4.9c-0.5,1.5-1.3,2.8-2.5,4
	c-1.2,1.2-2.7,1.8-4.3,1.9h-3.5v8.6h4.5c3-0.2,5.6-1.2,7.8-3.1c2.2-1.9,4-4.2,5.2-6.9c0.7-1.7,1.3-3.4,1.8-5.3h18.6
	c0.9,0,1.2,0.6,1.1,1.6l-0.6,4.2h-17.3v8.7h15.8c0,0.2-0.1,0.3-0.1,0.5c-0.5,1.5-1.3,2.8-2.5,4c-1.2,1.2-2.7,1.8-4.3,1.9h-8.9v8.7
	h10c3-0.2,5.6-1.2,7.8-3.1c2.2-1.9,4-4.2,5.2-6.9c1.2-2.7,2-5.6,2.4-8.7l2.1-15.2C648.8,1013.7,648.4,1012.7,647.5,1011.8z
	 M648.6,1000c-0.9-0.9-2-1.4-3.3-1.4c-1.3,0-2.4,0.5-3.3,1.4c-0.9,0.9-1.3,2-1.3,3.3c0,1.3,0.5,2.4,1.3,3.3c0.9,0.9,2,1.4,3.3,1.4
	c1.3,0,2.4-0.5,3.3-1.4c0.9-0.9,1.4-2,1.4-3.3C649.9,1002,649.5,1000.9,648.6,1000z M637.5,1000c-0.9-0.9-2-1.4-3.3-1.4
	c-1.3,0-2.4,0.5-3.3,1.4c-0.9,0.9-1.3,2-1.3,3.3c0,1.3,0.5,2.4,1.3,3.3c0.9,0.9,2,1.4,3.3,1.4c1.3,0,2.4-0.5,3.3-1.4
	c0.9-0.9,1.4-2,1.4-3.3C638.8,1002,638.4,1000.9,637.5,1000z M639.4,1101.6l-1.9,5c-0.7,1.9-1.4,3.7-2.3,5.4
	c-0.8,1.7-2.1,3.2-3.7,4.5c-1.6,1.3-3.4,2-5.3,2.1H600v9.9h21.1v17.2h9.9v-17.4c2.6-0.4,5.1-1.8,7.4-4c2.9-2.9,5.6-7.2,8-13l3.7-9.7
	H639.4z M631.5,1225.8l9.2-15.1c0.4-0.7,0.5-1.4,0.5-2.2c0-1.2-0.4-2.3-1.3-3.2c-0.9-0.8-1.9-1.3-3.2-1.3H600v8.9h29.3l-6.2,10.4
	c-1.1,1.8-2.2,3.5-3.4,5c-1.2,1.5-2.7,2.9-4.5,4.1c-1.8,1.2-3.6,1.8-5.3,1.9h-9.7v8.9h10.3c3.2-0.2,6.5-1.6,9.9-4.1
	c2-1.5,3.9-3.5,5.8-5.8l10.6,10H650L631.5,1225.8z M648.6,418.2c-0.9-1.6-2.3-3.1-4.3-4.3c-2-1.3-4.5-1.9-7.6-2h-0.4
	c-0.3,0-0.5-0.1-0.8-0.1h-18.9V407h-9v4.7H600v8.9h7.6v7.4c0,3.2,0.5,6.1,1.3,8.9c0.9,2.8,2.3,5.2,4.3,7.1c2,1.9,4.6,3,7.7,3.2h21.9
	v-8.9h-19.7c-1.7-0.1-3.1-0.7-4.2-1.9c-1.1-1.2-1.8-2.6-2.1-4.1c-0.3-1.5-0.4-3.2-0.4-5v-6.6h21.3c0.7,0,1.2,0.2,1.6,0.5
	c0.4,0.3,0.7,0.6,0.9,0.9c0.2,0.3,0.3,0.7,0.3,1c0,0.3-0.1,0.7-0.3,1c-0.2,0.3-0.5,0.6-0.9,0.9c-0.4,0.3-1,0.4-1.6,0.4h-15.7v8.9
	h14.5c3.1,0,5.7-0.6,7.7-1.9c2-1.3,3.5-2.7,4.3-4.3c0.9-1.6,1.3-3.3,1.3-4.9C649.9,421.4,649.5,419.8,648.6,418.2z M648.6,401.5
	c-0.9-0.9-2.1-1.4-3.4-1.4c-1.3,0-2.5,0.5-3.4,1.4s-1.4,2-1.4,3.4s0.5,2.5,1.4,3.4s2.1,1.4,3.4,1.4c1.3,0,2.5-0.5,3.4-1.4
	s1.4-2.1,1.4-3.4S649.5,402.4,648.6,401.5z M637.2,401.5c-0.9-0.9-2-1.4-3.4-1.4s-2.5,0.5-3.4,1.4c-0.9,0.9-1.4,2-1.4,3.4
	s0.5,2.5,1.4,3.4c0.9,0.9,2.1,1.4,3.4,1.4s2.5-0.5,3.4-1.4s1.4-2.1,1.4-3.4S638.1,402.4,637.2,401.5z M647.5,511.8
	c-0.9-0.8-1.9-1.2-3.1-1.2h-27.8c-1.2,0-2.3,0.4-3.2,1.2c-1,0.8-1.5,1.8-1.8,3v0.3c-0.2,1.8-0.6,3.4-1,4.9c-0.5,1.5-1.3,2.8-2.5,4
	c-1.2,1.2-2.7,1.8-4.3,1.9h-3.5v8.7h4.5c3-0.2,5.6-1.2,7.8-3.1c2.2-1.9,4-4.2,5.2-6.9c0.7-1.7,1.3-3.4,1.8-5.3h18.6
	c0.9,0,1.2,0.6,1.1,1.6l-0.6,4.2h-17.3v8.7h15.8c0,0.2-0.1,0.3-0.1,0.5c-0.5,1.5-1.3,2.8-2.5,4c-1.2,1.2-2.7,1.8-4.3,1.9h-8.9v8.7
	h10c3-0.2,5.6-1.2,7.8-3.1c2.2-1.9,4-4.2,5.2-6.9c1.2-2.7,2-5.6,2.4-8.7l2.1-15.2C648.8,513.7,648.4,512.7,647.5,511.8z M648.6,500
	c-0.9-0.9-2-1.4-3.3-1.4c-1.3,0-2.4,0.5-3.3,1.4c-0.9,0.9-1.3,2-1.3,3.3c0,1.3,0.5,2.4,1.3,3.3c0.9,0.9,2,1.4,3.3,1.4
	c1.3,0,2.4-0.5,3.3-1.4c0.9-0.9,1.4-2,1.4-3.3C649.9,502,649.5,500.9,648.6,500z M637.5,500c-0.9-0.9-2-1.4-3.3-1.4
	c-1.3,0-2.4,0.5-3.3,1.4c-0.9,0.9-1.3,2-1.3,3.3c0,1.3,0.5,2.4,1.3,3.3c0.9,0.9,2,1.4,3.3,1.4c1.3,0,2.4-0.5,3.3-1.4
	c0.9-0.9,1.4-2,1.4-3.3C638.8,502,638.4,500.9,637.5,500z M639.4,601.6l-1.9,5c-0.7,1.9-1.4,3.7-2.3,5.4c-0.8,1.7-2.1,3.2-3.7,4.5
	c-1.6,1.3-3.4,2-5.3,2.1H600v9.9h21.1v17.2h9.9v-17.5c2.6-0.5,5.1-1.8,7.4-4c2.9-2.8,5.6-7.2,8-13l3.7-9.7H639.4z M631.5,725.8
	l9.2-15.1c0.4-0.7,0.5-1.4,0.5-2.2c0-1.2-0.4-2.3-1.3-3.2c-0.9-0.8-1.9-1.3-3.2-1.3H600v8.9h29.3l-6.2,10.4c-1.1,1.8-2.2,3.5-3.4,5
	c-1.2,1.5-2.7,2.9-4.5,4.1c-1.8,1.2-3.6,1.8-5.3,1.9h-9.7v8.9h10.3c3.2-0.2,6.5-1.5,9.9-4.1c2-1.5,3.9-3.5,5.8-5.8l10.6,10H650
	L631.5,725.8z M612.5,819.6v8.1h25v-8.1H612.5z M739.4,1.6l-1.9,5c-0.7,1.9-1.4,3.7-2.3,5.4c-0.8,1.7-2.1,3.2-3.7,4.5
	c-1.6,1.3-3.4,2-5.3,2.1H700v9.9h21.1v17.2h9.9V28.3c2.6-0.5,5.1-1.8,7.4-4c2.9-2.8,5.6-7.2,8-13l3.7-9.7H739.4z M731.5,125.8
	l9.2-15.1c0.4-0.7,0.5-1.4,0.5-2.2c0-1.2-0.4-2.3-1.3-3.2c-0.9-0.8-1.9-1.3-3.2-1.3H700v8.9h29.3l-6.2,10.4c-1.1,1.8-2.2,3.5-3.4,5
	c-1.2,1.5-2.7,2.9-4.5,4.1c-1.8,1.2-3.6,1.8-5.3,1.9h-9.7v8.9h10.3c3.2-0.2,6.5-1.5,9.9-4.1c2-1.5,3.9-3.5,5.8-5.8l10.6,10H750
	L731.5,125.8z M712.5,219.6v8.1h25v-8.1H712.5z M748.6,818.2c-0.9-1.6-2.3-3.1-4.3-4.3c-2-1.3-4.5-1.9-7.6-2h-0.4
	c-0.3,0-0.5-0.1-0.8-0.1h-18.9V807h-9v4.7H700v8.9h7.6v7.4c0,3.2,0.5,6.1,1.3,8.9c0.9,2.8,2.3,5.2,4.3,7.1c2,1.9,4.6,3,7.7,3.2h21.9
	v-8.9h-19.7c-1.7-0.1-3.1-0.7-4.2-1.9c-1.1-1.2-1.8-2.6-2.1-4.1c-0.3-1.5-0.4-3.2-0.4-5v-6.6h21.3c0.7,0,1.2,0.2,1.6,0.5
	c0.4,0.3,0.7,0.6,0.9,0.9c0.2,0.3,0.3,0.7,0.3,1c0,0.3-0.1,0.7-0.3,1c-0.2,0.3-0.5,0.6-0.9,0.9c-0.4,0.3-1,0.4-1.6,0.4h-15.7v8.9
	h14.5c3.1,0,5.7-0.6,7.7-1.9c2-1.3,3.5-2.7,4.3-4.3c0.9-1.6,1.3-3.3,1.3-4.9C749.9,821.4,749.5,819.8,748.6,818.2z M748.6,801.5
	c-0.9-0.9-2.1-1.4-3.4-1.4c-1.3,0-2.5,0.5-3.4,1.4s-1.4,2-1.4,3.4s0.5,2.5,1.4,3.4s2.1,1.4,3.4,1.4c1.3,0,2.5-0.5,3.4-1.4
	s1.4-2.1,1.4-3.4S749.5,802.4,748.6,801.5z M737.2,801.5c-0.9-0.9-2-1.4-3.4-1.4s-2.5,0.5-3.4,1.4c-0.9,0.9-1.4,2-1.4,3.4
	s0.5,2.5,1.4,3.4c0.9,0.9,2.1,1.4,3.4,1.4s2.5-0.5,3.4-1.4s1.4-2.1,1.4-3.4S738.1,802.4,737.2,801.5z M747.5,911.8
	c-0.9-0.8-1.9-1.2-3.1-1.2h-27.8c-1.2,0-2.3,0.4-3.2,1.2c-1,0.8-1.5,1.8-1.8,3v0.3c-0.2,1.8-0.6,3.4-1,4.9c-0.5,1.5-1.3,2.8-2.5,4
	c-1.2,1.2-2.7,1.8-4.3,1.9h-3.5v8.7h4.5c3-0.2,5.6-1.2,7.8-3.1c2.2-1.9,4-4.2,5.2-6.9c0.7-1.7,1.3-3.4,1.8-5.3h18.6
	c0.9,0,1.2,0.6,1.1,1.6l-0.6,4.2h-17.3v8.7h15.8c0,0.2-0.1,0.3-0.1,0.5c-0.5,1.5-1.3,2.8-2.5,4c-1.2,1.2-2.7,1.8-4.3,1.9h-8.9v8.7
	h10c3-0.2,5.6-1.2,7.8-3.1c2.2-1.9,4-4.2,5.2-6.9c1.2-2.7,2-5.6,2.4-8.7l2.1-15.2C748.8,913.7,748.4,912.7,747.5,911.8z M748.6,900
	c-0.9-0.9-2-1.4-3.3-1.4c-1.3,0-2.4,0.5-3.3,1.4c-0.9,0.9-1.3,2-1.3,3.3c0,1.3,0.5,2.4,1.3,3.3c0.9,0.9,2,1.4,3.3,1.4
	c1.3,0,2.4-0.5,3.3-1.4c0.9-0.9,1.4-2,1.4-3.3C749.9,902,749.5,900.9,748.6,900z M737.5,900c-0.9-0.9-2-1.4-3.3-1.4
	c-1.3,0-2.4,0.5-3.3,1.4c-0.9,0.9-1.3,2-1.3,3.3c0,1.3,0.5,2.4,1.3,3.3c0.9,0.9,2,1.4,3.3,1.4c1.3,0,2.4-0.5,3.3-1.4
	c0.9-0.9,1.4-2,1.4-3.3C738.8,902,738.4,900.9,737.5,900z M739.4,1001.6l-1.9,5c-0.7,1.9-1.4,3.7-2.3,5.4c-0.8,1.7-2.1,3.2-3.7,4.5
	c-1.6,1.3-3.4,2-5.3,2.1H700v9.9h21.1v17.2h9.9v-17.4c2.6-0.4,5.1-1.8,7.4-4c2.9-2.9,5.6-7.2,8-13l3.7-9.7H739.4z M731.5,1125.8
	l9.2-15.1c0.4-0.7,0.5-1.4,0.5-2.2c0-1.2-0.4-2.3-1.3-3.2c-0.9-0.8-1.9-1.3-3.2-1.3H700v8.9h29.3l-6.2,10.4c-1.1,1.8-2.2,3.5-3.4,5
	c-1.2,1.5-2.7,2.9-4.5,4.1c-1.8,1.2-3.6,1.8-5.3,1.9h-9.7v8.9h10.3c3.2-0.2,6.5-1.6,9.9-4.1c2-1.5,3.9-3.5,5.8-5.8l10.6,10H750
	L731.5,1125.8z M712.5,1219.6v8.1h25v-8.1H712.5z M748.6,318.2c-0.9-1.6-2.3-3.1-4.3-4.3c-2-1.3-4.5-1.9-7.6-2h-0.4
	c-0.3,0-0.5-0.1-0.8-0.1h-18.9V307h-9v4.7H700v8.9h7.6v7.4c0,3.2,0.5,6.1,1.3,8.9c0.9,2.8,2.3,5.2,4.3,7.1c2,1.9,4.6,3,7.7,3.2h21.9
	v-8.9h-19.7c-1.7-0.1-3.1-0.7-4.2-1.9c-1.1-1.2-1.8-2.6-2.1-4.1c-0.3-1.5-0.4-3.2-0.4-5v-6.6h21.3c0.7,0,1.2,0.2,1.6,0.5
	c0.4,0.3,0.7,0.6,0.9,0.9c0.2,0.3,0.3,0.7,0.3,1c0,0.3-0.1,0.7-0.3,1c-0.2,0.3-0.5,0.6-0.9,0.9c-0.4,0.3-1,0.4-1.6,0.4h-15.7v8.9
	h14.5c3.1,0,5.7-0.6,7.7-1.9c2-1.3,3.5-2.7,4.3-4.3c0.9-1.6,1.3-3.3,1.3-4.9C749.9,321.4,749.5,319.8,748.6,318.2z M748.6,301.5
	c-0.9-0.9-2.1-1.4-3.4-1.4c-1.3,0-2.5,0.5-3.4,1.4s-1.4,2-1.4,3.4s0.5,2.5,1.4,3.4s2.1,1.4,3.4,1.4c1.3,0,2.5-0.5,3.4-1.4
	s1.4-2.1,1.4-3.4S749.5,302.4,748.6,301.5z M737.2,301.5c-0.9-0.9-2-1.4-3.4-1.4s-2.5,0.5-3.4,1.4c-0.9,0.9-1.4,2-1.4,3.4
	s0.5,2.5,1.4,3.4c0.9,0.9,2.1,1.4,3.4,1.4s2.5-0.5,3.4-1.4s1.4-2.1,1.4-3.4S738.1,302.4,737.2,301.5z M747.5,411.8
	c-0.9-0.8-1.9-1.2-3.1-1.2h-27.8c-1.2,0-2.3,0.4-3.2,1.2c-1,0.8-1.5,1.8-1.8,3v0.3c-0.2,1.8-0.6,3.4-1,4.9c-0.5,1.5-1.3,2.8-2.5,4
	c-1.2,1.2-2.7,1.8-4.3,1.9h-3.5v8.7h4.5c3-0.2,5.6-1.2,7.8-3.1c2.2-1.9,4-4.2,5.2-6.9c0.7-1.7,1.3-3.4,1.8-5.3h18.6
	c0.9,0,1.2,0.6,1.1,1.6l-0.6,4.2h-17.3v8.7h15.8c0,0.2-0.1,0.3-0.1,0.5c-0.5,1.5-1.3,2.8-2.5,4c-1.2,1.2-2.7,1.8-4.3,1.9h-8.9v8.7
	h10c3-0.2,5.6-1.2,7.8-3.1c2.2-1.9,4-4.2,5.2-6.9c1.2-2.7,2-5.6,2.4-8.7l2.1-15.2C748.8,413.7,748.4,412.7,747.5,411.8z M748.6,400
	c-0.9-0.9-2-1.4-3.3-1.4c-1.3,0-2.4,0.5-3.3,1.4c-0.9,0.9-1.3,2-1.3,3.3c0,1.3,0.5,2.4,1.3,3.3c0.9,0.9,2,1.4,3.3,1.4
	c1.3,0,2.4-0.5,3.3-1.4c0.9-0.9,1.4-2,1.4-3.3C749.9,402,749.5,400.9,748.6,400z M737.5,400c-0.9-0.9-2-1.4-3.3-1.4
	c-1.3,0-2.4,0.5-3.3,1.4c-0.9,0.9-1.3,2-1.3,3.3c0,1.3,0.5,2.4,1.3,3.3c0.9,0.9,2,1.4,3.3,1.4c1.3,0,2.4-0.5,3.3-1.4
	c0.9-0.9,1.4-2,1.4-3.3C738.8,402,738.4,400.9,737.5,400z M739.4,501.6l-1.9,5c-0.7,1.9-1.4,3.7-2.3,5.4c-0.8,1.7-2.1,3.2-3.7,4.5
	c-1.6,1.3-3.4,2-5.3,2.1H700v9.9h21.1v17.2h9.9v-17.5c2.6-0.5,5.1-1.8,7.4-4c2.9-2.8,5.6-7.2,8-13l3.7-9.7H739.4z M731.5,625.8
	l9.2-15.1c0.4-0.7,0.5-1.4,0.5-2.2c0-1.2-0.4-2.3-1.3-3.2c-0.9-0.8-1.9-1.3-3.2-1.3H700v8.9h29.3l-6.2,10.4c-1.1,1.8-2.2,3.5-3.4,5
	c-1.2,1.5-2.7,2.9-4.5,4.1c-1.8,1.2-3.6,1.8-5.3,1.9h-9.7v8.9h10.3c3.2-0.2,6.5-1.5,9.9-4.1c2-1.5,3.9-3.5,5.8-5.8l10.6,10H750
	L731.5,625.8z M712.5,719.6v8.1h25v-8.1H712.5z M830.2,25.8l9.2-15.1c0.4-0.7,0.5-1.4,0.5-2.2c0-1.2-0.4-2.3-1.3-3.2
	c-0.9-0.8-2-1.3-3.2-1.3h-36.8V13h29.3l-6.2,10.4c-1.1,1.8-2.2,3.5-3.4,5c-1.2,1.5-2.7,2.9-4.5,4.1c-1.8,1.2-3.6,1.8-5.2,1.9h-9.7
	v8.9h10.4c3.2-0.2,6.5-1.5,9.9-4.1c2-1.5,3.9-3.5,5.8-5.8l10.6,10h13.1L830.2,25.8z M811.1,119.6v8.1h25v-8.1H811.1z M847.2,718.2
	c-0.9-1.6-2.3-3.1-4.3-4.3s-4.5-1.9-7.6-2h-0.4c-0.3,0-0.5-0.1-0.8-0.1h-18.9V707h-9v4.7h-7.6v8.9h7.6v7.4c0,3.2,0.5,6.1,1.3,8.9
	c0.9,2.8,2.3,5.2,4.4,7.1c2,1.9,4.6,3,7.7,3.2h21.9v-8.9h-19.7c-1.7-0.1-3.1-0.7-4.2-1.9c-1.1-1.2-1.8-2.6-2.1-4.1
	c-0.3-1.5-0.4-3.2-0.4-5v-6.6h21.3c0.7,0,1.2,0.2,1.6,0.5s0.7,0.6,0.9,0.9c0.2,0.3,0.3,0.7,0.3,1c0,0.3-0.1,0.7-0.3,1
	c-0.2,0.3-0.5,0.6-0.9,0.9c-0.4,0.3-1,0.4-1.6,0.4h-15.7v8.9h14.5c3.1,0,5.7-0.6,7.7-1.9c2-1.3,3.4-2.7,4.3-4.3
	c0.9-1.6,1.3-3.3,1.3-4.9C848.6,721.4,848.1,719.8,847.2,718.2z M847.2,701.5c-0.9-0.9-2-1.4-3.4-1.4c-1.3,0-2.5,0.5-3.4,1.4
	c-0.9,0.9-1.4,2-1.4,3.4s0.5,2.5,1.4,3.4c0.9,0.9,2.1,1.4,3.4,1.4c1.3,0,2.5-0.5,3.4-1.4s1.4-2.1,1.4-3.4S848.2,702.4,847.2,701.5z
	 M835.8,701.5c-0.9-0.9-2.1-1.4-3.4-1.4c-1.3,0-2.5,0.5-3.4,1.4s-1.4,2-1.4,3.4s0.5,2.5,1.4,3.4s2.1,1.4,3.4,1.4
	c1.3,0,2.5-0.5,3.4-1.4s1.4-2.1,1.4-3.4S836.8,702.4,835.8,701.5z M846.2,811.8c-0.9-0.8-1.9-1.2-3.1-1.2h-27.9
	c-1.2,0-2.3,0.4-3.2,1.2c-0.9,0.8-1.5,1.8-1.7,3v0.3c-0.2,1.8-0.6,3.4-1,4.9c-0.5,1.5-1.3,2.8-2.5,4c-1.2,1.2-2.7,1.8-4.3,1.9h-3.5
	v8.7h4.5c3-0.2,5.6-1.2,7.8-3.1c2.2-1.9,4-4.2,5.2-6.9c0.7-1.7,1.3-3.4,1.8-5.3h18.6c0.9,0,1.2,0.6,1.1,1.6l-0.6,4.2h-17.3v8.7h15.8
	c0,0.2-0.1,0.3-0.1,0.5c-0.5,1.5-1.3,2.8-2.5,4c-1.2,1.2-2.7,1.8-4.3,1.9h-8.9v8.7h10c3-0.2,5.6-1.2,7.8-3.1c2.2-1.9,4-4.2,5.2-6.9
	c1.2-2.7,2-5.6,2.4-8.7l2.1-15.2C847.5,813.7,847.1,812.7,846.2,811.8z M847.2,800c-0.9-0.9-2-1.4-3.3-1.4c-1.3,0-2.4,0.5-3.3,1.4
	c-0.9,0.9-1.3,2-1.3,3.3c0,1.3,0.5,2.4,1.3,3.3c0.9,0.9,2,1.4,3.3,1.4c1.3,0,2.4-0.5,3.3-1.4c0.9-0.9,1.4-2,1.4-3.3
	C848.6,802,848.1,800.9,847.2,800z M836.1,800c-0.9-0.9-2-1.4-3.3-1.4c-1.3,0-2.4,0.5-3.3,1.4c-0.9,0.9-1.4,2-1.4,3.3
	c0,1.3,0.5,2.4,1.4,3.3c0.9,0.9,2,1.4,3.3,1.4c1.3,0,2.4-0.5,3.3-1.4c0.9-0.9,1.4-2,1.4-3.3C837.5,802,837,800.9,836.1,800z
	 M838,901.6l-1.9,5c-0.7,1.9-1.5,3.7-2.3,5.4c-0.8,1.7-2.1,3.2-3.7,4.5c-1.7,1.3-3.4,2-5.3,2.1h-26.2v9.9h21.1v17.2h9.9v-17.5
	c2.6-0.5,5.1-1.8,7.4-4c3-2.8,5.6-7.2,8-13l3.7-9.7H838z M830.2,1025.8l9.2-15.1c0.4-0.7,0.5-1.4,0.5-2.2c0-1.2-0.4-2.3-1.3-3.2
	c-0.9-0.8-2-1.3-3.2-1.3h-36.8v8.9h29.3l-6.2,10.4c-1.1,1.8-2.2,3.5-3.4,5c-1.2,1.5-2.7,2.9-4.5,4.1c-1.8,1.2-3.6,1.8-5.2,1.9h-9.7
	v8.9h10.4c3.2-0.2,6.5-1.6,9.9-4.1c2-1.5,3.9-3.5,5.8-5.8l10.6,10h13.1L830.2,1025.8z M811.1,1119.6v8.1h25v-8.1H811.1z
	 M847.2,218.2c-0.9-1.6-2.3-3.1-4.3-4.3s-4.5-1.9-7.6-2h-0.4c-0.3,0-0.5-0.1-0.8-0.1h-18.9V207h-9v4.7h-7.6v8.9h7.6v7.4
	c0,3.2,0.5,6.1,1.3,8.9c0.9,2.8,2.3,5.2,4.4,7.1c2,1.9,4.6,3,7.7,3.2h21.9v-8.9h-19.7c-1.7-0.1-3.1-0.7-4.2-1.9
	c-1.1-1.2-1.8-2.6-2.1-4.1c-0.3-1.5-0.4-3.2-0.4-5v-6.6h21.3c0.7,0,1.2,0.2,1.6,0.5s0.7,0.6,0.9,0.9c0.2,0.3,0.3,0.7,0.3,1
	c0,0.3-0.1,0.7-0.3,1c-0.2,0.3-0.5,0.6-0.9,0.9c-0.4,0.3-1,0.4-1.6,0.4h-15.7v8.9h14.5c3.1,0,5.7-0.6,7.7-1.9c2-1.3,3.4-2.7,4.3-4.3
	c0.9-1.6,1.3-3.3,1.3-4.9C848.6,221.4,848.1,219.8,847.2,218.2z M847.2,201.5c-0.9-0.9-2-1.4-3.4-1.4c-1.3,0-2.5,0.5-3.4,1.4
	c-0.9,0.9-1.4,2-1.4,3.4s0.5,2.5,1.4,3.4c0.9,0.9,2.1,1.4,3.4,1.4c1.3,0,2.5-0.5,3.4-1.4s1.4-2.1,1.4-3.4S848.2,202.4,847.2,201.5z
	 M835.8,201.5c-0.9-0.9-2.1-1.4-3.4-1.4c-1.3,0-2.5,0.5-3.4,1.4s-1.4,2-1.4,3.4s0.5,2.5,1.4,3.4s2.1,1.4,3.4,1.4
	c1.3,0,2.5-0.5,3.4-1.4s1.4-2.1,1.4-3.4S836.8,202.4,835.8,201.5z M846.2,311.8c-0.9-0.8-1.9-1.2-3.1-1.2h-27.9
	c-1.2,0-2.3,0.4-3.2,1.2c-0.9,0.8-1.5,1.8-1.7,3v0.3c-0.2,1.8-0.6,3.4-1,4.9c-0.5,1.5-1.3,2.8-2.5,4c-1.2,1.2-2.7,1.8-4.3,1.9h-3.5
	v8.7h4.5c3-0.2,5.6-1.2,7.8-3.1c2.2-1.9,4-4.2,5.2-6.9c0.7-1.7,1.3-3.4,1.8-5.3h18.6c0.9,0,1.2,0.6,1.1,1.6l-0.6,4.2h-17.3v8.7h15.8
	c0,0.2-0.1,0.3-0.1,0.5c-0.5,1.5-1.3,2.8-2.5,4c-1.2,1.2-2.7,1.8-4.3,1.9h-8.9v8.7h10c3-0.2,5.6-1.2,7.8-3.1c2.2-1.9,4-4.2,5.2-6.9
	c1.2-2.7,2-5.6,2.4-8.7l2.1-15.2C847.5,313.7,847.1,312.7,846.2,311.8z M847.2,300c-0.9-0.9-2-1.4-3.3-1.4c-1.3,0-2.4,0.5-3.3,1.4
	c-0.9,0.9-1.3,2-1.3,3.3c0,1.3,0.5,2.4,1.3,3.3c0.9,0.9,2,1.4,3.3,1.4c1.3,0,2.4-0.5,3.3-1.4c0.9-0.9,1.4-2,1.4-3.3
	C848.6,302,848.1,300.9,847.2,300z M836.1,300c-0.9-0.9-2-1.4-3.3-1.4c-1.3,0-2.4,0.5-3.3,1.4c-0.9,0.9-1.4,2-1.4,3.3
	c0,1.3,0.5,2.4,1.4,3.3c0.9,0.9,2,1.4,3.3,1.4c1.3,0,2.4-0.5,3.3-1.4c0.9-0.9,1.4-2,1.4-3.3C837.5,302,837,300.9,836.1,300z
	 M838,401.6l-1.9,5c-0.7,1.9-1.5,3.7-2.3,5.4c-0.8,1.7-2.1,3.2-3.7,4.5c-1.7,1.3-3.4,2-5.3,2.1h-26.2v9.9h21.1v17.2h9.9v-17.5
	c2.6-0.5,5.1-1.8,7.4-4c3-2.8,5.6-7.2,8-13l3.7-9.7H838z M830.2,525.8l9.2-15.1c0.4-0.7,0.5-1.4,0.5-2.2c0-1.2-0.4-2.3-1.3-3.2
	c-0.9-0.8-2-1.3-3.2-1.3h-36.8v8.9h29.3l-6.2,10.4c-1.1,1.8-2.2,3.5-3.4,5c-1.2,1.5-2.7,2.9-4.5,4.1c-1.8,1.2-3.6,1.8-5.2,1.9h-9.7
	v8.9h10.4c3.2-0.2,6.5-1.5,9.9-4.1c2-1.5,3.9-3.5,5.8-5.8l10.6,10h13.1L830.2,525.8z M811.1,619.6v8.1h25v-8.1H811.1z M848.6,1218.2
	c-0.9-1.6-2.3-3.1-4.3-4.3c-2-1.3-4.5-1.9-7.6-2h-0.4c-0.3,0-0.5-0.1-0.8-0.1h-18.9v-4.7h-9v4.7H800v8.9h7.6v7.4
	c0,3.2,0.5,6.1,1.3,8.9c0.9,2.8,2.3,5.2,4.3,7.1c2,1.9,4.6,3,7.7,3.2h21.9v-8.9h-19.7c-1.7-0.1-3.1-0.7-4.2-1.9
	c-1.1-1.2-1.8-2.6-2.1-4.1c-0.3-1.5-0.4-3.2-0.4-5v-6.6h21.3c0.7,0,1.2,0.2,1.6,0.5c0.4,0.3,0.7,0.6,0.9,0.9c0.2,0.3,0.3,0.6,0.3,1
	c0,0.3-0.1,0.7-0.3,1c-0.2,0.3-0.5,0.6-0.9,0.9c-0.4,0.3-1,0.4-1.6,0.4h-15.7v8.9h14.5c3.1,0,5.7-0.6,7.7-1.9c2-1.3,3.5-2.7,4.3-4.3
	c0.9-1.6,1.3-3.3,1.3-4.9C849.9,1221.4,849.5,1219.8,848.6,1218.2z M848.6,1201.5c-0.9-0.9-2.1-1.4-3.4-1.4c-1.3,0-2.5,0.5-3.4,1.4
	s-1.4,2.1-1.4,3.4s0.5,2.5,1.4,3.4s2.1,1.4,3.4,1.4c1.3,0,2.5-0.5,3.4-1.4s1.4-2.1,1.4-3.4S849.5,1202.4,848.6,1201.5z
	 M837.2,1201.5c-0.9-0.9-2-1.4-3.4-1.4s-2.5,0.5-3.4,1.4c-0.9,0.9-1.4,2.1-1.4,3.4s0.5,2.5,1.4,3.4c0.9,0.9,2.1,1.4,3.4,1.4
	s2.5-0.5,3.4-1.4s1.4-2.1,1.4-3.4S838.1,1202.4,837.2,1201.5z M912.5,19.6v8.1h25v-8.1H912.5z M948.6,618.2
	c-0.9-1.6-2.3-3.1-4.3-4.3c-2-1.3-4.5-1.9-7.6-2h-0.4c-0.3,0-0.5-0.1-0.8-0.1h-18.9V607h-9v4.7H900v8.9h7.6v7.4
	c0,3.2,0.5,6.1,1.3,8.9c0.9,2.8,2.3,5.2,4.3,7.1c2,1.9,4.6,3,7.7,3.2h21.9v-8.9h-19.7c-1.7-0.1-3.1-0.7-4.2-1.9
	c-1.1-1.2-1.8-2.6-2.1-4.1c-0.3-1.5-0.4-3.2-0.4-5v-6.6h21.3c0.7,0,1.2,0.2,1.6,0.5c0.4,0.3,0.7,0.6,0.9,0.9c0.2,0.3,0.3,0.7,0.3,1
	c0,0.3-0.1,0.7-0.3,1c-0.2,0.3-0.5,0.6-0.9,0.9c-0.4,0.3-1,0.4-1.6,0.4h-15.7v8.9h14.5c3.1,0,5.7-0.6,7.7-1.9c2-1.3,3.5-2.7,4.3-4.3
	c0.9-1.6,1.3-3.3,1.3-4.9C949.9,621.4,949.5,619.8,948.6,618.2z M948.6,601.5c-0.9-0.9-2.1-1.4-3.4-1.4c-1.3,0-2.5,0.5-3.4,1.4
	s-1.4,2-1.4,3.4s0.5,2.5,1.4,3.4s2.1,1.4,3.4,1.4c1.3,0,2.5-0.5,3.4-1.4s1.4-2.1,1.4-3.4S949.5,602.4,948.6,601.5z M937.2,601.5
	c-0.9-0.9-2-1.4-3.4-1.4s-2.5,0.5-3.4,1.4c-0.9,0.9-1.4,2-1.4,3.4s0.5,2.5,1.4,3.4c0.9,0.9,2.1,1.4,3.4,1.4s2.5-0.5,3.4-1.4
	s1.4-2.1,1.4-3.4S938.1,602.4,937.2,601.5z M947.5,711.8c-0.9-0.8-1.9-1.2-3.1-1.2h-27.8c-1.2,0-2.3,0.4-3.2,1.2
	c-1,0.8-1.5,1.8-1.8,3v0.3c-0.2,1.8-0.6,3.4-1,4.9c-0.5,1.5-1.3,2.8-2.5,4c-1.2,1.2-2.7,1.8-4.3,1.9h-3.5v8.7h4.5
	c3-0.2,5.6-1.2,7.8-3.1c2.2-1.9,4-4.2,5.2-6.9c0.7-1.7,1.3-3.4,1.8-5.3h18.6c0.9,0,1.2,0.6,1.1,1.6l-0.6,4.2h-17.3v8.7h15.8
	c0,0.2-0.1,0.3-0.1,0.5c-0.5,1.5-1.3,2.8-2.5,4c-1.2,1.2-2.7,1.8-4.3,1.9h-8.9v8.7h10c3-0.2,5.6-1.2,7.8-3.1c2.2-1.9,4-4.2,5.2-6.9
	c1.2-2.7,2-5.6,2.4-8.7l2.1-15.2C948.8,713.7,948.4,712.7,947.5,711.8z M948.6,700c-0.9-0.9-2-1.4-3.3-1.4c-1.3,0-2.4,0.5-3.3,1.4
	c-0.9,0.9-1.3,2-1.3,3.3c0,1.3,0.5,2.4,1.3,3.3c0.9,0.9,2,1.4,3.3,1.4c1.3,0,2.4-0.5,3.3-1.4c0.9-0.9,1.4-2,1.4-3.3
	C949.9,702,949.5,700.9,948.6,700z M937.5,700c-0.9-0.9-2-1.4-3.3-1.4c-1.3,0-2.4,0.5-3.3,1.4c-0.9,0.9-1.3,2-1.3,3.3
	c0,1.3,0.5,2.4,1.3,3.3c0.9,0.9,2,1.4,3.3,1.4c1.3,0,2.4-0.5,3.3-1.4c0.9-0.9,1.4-2,1.4-3.3C938.8,702,938.4,700.9,937.5,700z
	 M939.4,801.6l-1.9,5c-0.7,1.9-1.4,3.7-2.3,5.4c-0.8,1.7-2.1,3.2-3.7,4.5c-1.6,1.3-3.4,2-5.3,2.1H900v9.9h21.1v17.2h9.9v-17.5
	c2.6-0.5,5.1-1.8,7.4-4c2.9-2.8,5.6-7.2,8-13l3.7-9.7H939.4z M931.5,925.8l9.2-15.1c0.4-0.7,0.5-1.4,0.5-2.2c0-1.2-0.4-2.3-1.3-3.2
	c-0.9-0.8-1.9-1.3-3.2-1.3H900v8.9h29.3l-6.2,10.4c-1.1,1.8-2.2,3.5-3.4,5c-1.2,1.5-2.7,2.9-4.5,4.1c-1.8,1.2-3.6,1.8-5.3,1.9h-9.7
	v8.9h10.3c3.2-0.2,6.5-1.5,9.9-4.1c2-1.5,3.9-3.5,5.8-5.8l10.6,10H950L931.5,925.8z M912.5,1019.6v8.1h25v-8.1H912.5z M948.6,118.2
	c-0.9-1.6-2.3-3.1-4.3-4.3c-2-1.3-4.5-1.9-7.6-2h-0.4c-0.3,0-0.5-0.1-0.8-0.1h-18.9V107h-9v4.7H900v8.9h7.6v7.4
	c0,3.2,0.5,6.1,1.3,8.9c0.9,2.8,2.3,5.2,4.3,7.1c2,1.9,4.6,3,7.7,3.2h21.9v-8.9h-19.7c-1.7-0.1-3.1-0.7-4.2-1.9
	c-1.1-1.2-1.8-2.6-2.1-4.1c-0.3-1.5-0.4-3.2-0.4-5v-6.6h21.3c0.7,0,1.2,0.2,1.6,0.5c0.4,0.3,0.7,0.6,0.9,0.9c0.2,0.3,0.3,0.7,0.3,1
	c0,0.3-0.1,0.7-0.3,1c-0.2,0.3-0.5,0.6-0.9,0.9c-0.4,0.3-1,0.4-1.6,0.4h-15.7v8.9h14.5c3.1,0,5.7-0.6,7.7-1.9c2-1.3,3.5-2.7,4.3-4.3
	c0.9-1.6,1.3-3.3,1.3-4.9C949.9,121.4,949.5,119.8,948.6,118.2z M948.6,101.5c-0.9-0.9-2.1-1.4-3.4-1.4c-1.3,0-2.5,0.5-3.4,1.4
	s-1.4,2-1.4,3.4s0.5,2.5,1.4,3.4s2.1,1.4,3.4,1.4c1.3,0,2.5-0.5,3.4-1.4s1.4-2.1,1.4-3.4S949.5,102.4,948.6,101.5z M937.2,101.5
	c-0.9-0.9-2-1.4-3.4-1.4s-2.5,0.5-3.4,1.4c-0.9,0.9-1.4,2-1.4,3.4s0.5,2.5,1.4,3.4c0.9,0.9,2.1,1.4,3.4,1.4s2.5-0.5,3.4-1.4
	s1.4-2.1,1.4-3.4S938.1,102.4,937.2,101.5z M947.5,211.8c-0.9-0.8-1.9-1.2-3.1-1.2h-27.8c-1.2,0-2.3,0.4-3.2,1.2
	c-1,0.8-1.5,1.8-1.8,3v0.3c-0.2,1.8-0.6,3.4-1,4.9c-0.5,1.5-1.3,2.8-2.5,4c-1.2,1.2-2.7,1.8-4.3,1.9h-3.5v8.7h4.5
	c3-0.2,5.6-1.2,7.8-3.1c2.2-1.9,4-4.2,5.2-6.9c0.7-1.7,1.3-3.4,1.8-5.3h18.6c0.9,0,1.2,0.6,1.1,1.6l-0.6,4.2h-17.3v8.7h15.8
	c0,0.2-0.1,0.3-0.1,0.5c-0.5,1.5-1.3,2.8-2.5,4c-1.2,1.2-2.7,1.8-4.3,1.9h-8.9v8.7h10c3-0.2,5.6-1.2,7.8-3.1c2.2-1.9,4-4.2,5.2-6.9
	c1.2-2.7,2-5.6,2.4-8.7l2.1-15.2C948.8,213.7,948.4,212.7,947.5,211.8z M948.6,200c-0.9-0.9-2-1.4-3.3-1.4c-1.3,0-2.4,0.5-3.3,1.4
	c-0.9,0.9-1.3,2-1.3,3.3c0,1.3,0.5,2.4,1.3,3.3c0.9,0.9,2,1.4,3.3,1.4c1.3,0,2.4-0.5,3.3-1.4c0.9-0.9,1.4-2,1.4-3.3
	C949.9,202,949.5,200.9,948.6,200z M937.5,200c-0.9-0.9-2-1.4-3.3-1.4c-1.3,0-2.4,0.5-3.3,1.4c-0.9,0.9-1.3,2-1.3,3.3
	c0,1.3,0.5,2.4,1.3,3.3c0.9,0.9,2,1.4,3.3,1.4c1.3,0,2.4-0.5,3.3-1.4c0.9-0.9,1.4-2,1.4-3.3C938.8,202,938.4,200.9,937.5,200z
	 M939.4,301.6l-1.9,5c-0.7,1.9-1.4,3.7-2.3,5.4c-0.8,1.7-2.1,3.2-3.7,4.5c-1.6,1.3-3.4,2-5.3,2.1H900v9.9h21.1v17.2h9.9v-17.5
	c2.6-0.5,5.1-1.8,7.4-4c2.9-2.8,5.6-7.2,8-13l3.7-9.7H939.4z M931.5,425.8l9.2-15.1c0.4-0.7,0.5-1.4,0.5-2.2c0-1.2-0.4-2.3-1.3-3.2
	c-0.9-0.8-1.9-1.3-3.2-1.3H900v8.9h29.3l-6.2,10.4c-1.1,1.8-2.2,3.5-3.4,5c-1.2,1.5-2.7,2.9-4.5,4.1c-1.8,1.2-3.6,1.8-5.3,1.9h-9.7
	v8.9h10.3c3.2-0.2,6.5-1.5,9.9-4.1c2-1.5,3.9-3.5,5.8-5.8l10.6,10H950L931.5,425.8z M912.5,519.6v8.1h25v-8.1H912.5z M950,1118.2
	c-0.9-1.6-2.3-3.1-4.3-4.3c-2-1.3-4.5-1.9-7.6-2h-0.4c-0.3,0-0.5-0.1-0.8-0.1H918v-4.7h-9v4.7h-7.6v8.9h7.6v7.4
	c0,3.2,0.5,6.1,1.3,8.9c0.9,2.8,2.3,5.2,4.3,7.1c2,1.9,4.6,3,7.7,3.2h21.9v-8.9h-19.7c-1.7-0.1-3.1-0.7-4.2-1.9
	c-1.1-1.2-1.8-2.6-2.1-4.1c-0.3-1.5-0.4-3.2-0.4-5v-6.6h21.3c0.7,0,1.2,0.2,1.6,0.5c0.4,0.3,0.7,0.6,0.9,0.9c0.2,0.3,0.3,0.6,0.3,1
	c0,0.3-0.1,0.7-0.3,1c-0.2,0.3-0.5,0.6-0.9,0.9c-0.4,0.3-1,0.4-1.6,0.4h-15.7v8.9H938c3.1,0,5.7-0.6,7.7-1.9c2-1.3,3.5-2.7,4.3-4.3
	c0.9-1.6,1.3-3.3,1.3-4.9C951.3,1121.4,950.8,1119.8,950,1118.2z M950,1101.5c-0.9-0.9-2.1-1.4-3.4-1.4c-1.3,0-2.5,0.5-3.4,1.4
	s-1.4,2.1-1.4,3.4s0.5,2.5,1.4,3.4s2.1,1.4,3.4,1.4c1.3,0,2.5-0.5,3.4-1.4c0.9-0.9,1.4-2.1,1.4-3.4S950.9,1102.4,950,1101.5z
	 M938.5,1101.5c-0.9-0.9-2.1-1.4-3.4-1.4c-1.3,0-2.5,0.5-3.4,1.4s-1.4,2.1-1.4,3.4s0.5,2.5,1.4,3.4s2.1,1.4,3.4,1.4
	c1.3,0,2.5-0.5,3.4-1.4s1.4-2.1,1.4-3.4S939.5,1102.4,938.5,1101.5z M948.9,1211.8c-0.9-0.8-1.9-1.2-3.1-1.2H918
	c-1.2,0-2.3,0.4-3.2,1.2c-0.9,0.8-1.5,1.8-1.8,3v0.3c-0.2,1.8-0.6,3.4-1,4.9c-0.5,1.5-1.3,2.8-2.5,4c-1.2,1.2-2.7,1.8-4.3,1.9h-3.5
	v8.6h4.5c3-0.2,5.6-1.2,7.8-3.1c2.2-1.9,4-4.2,5.2-6.9c0.7-1.7,1.3-3.4,1.8-5.3h18.6c0.9,0,1.2,0.6,1.1,1.6l-0.6,4.2h-17.3v8.7h15.8
	c0,0.2-0.1,0.3-0.1,0.5c-0.5,1.5-1.3,2.8-2.6,4c-1.2,1.2-2.7,1.8-4.3,1.9h-8.9v8.7h10c3-0.2,5.6-1.2,7.9-3.1
	c2.2-1.9,3.9-4.2,5.2-6.9c1.2-2.7,2-5.6,2.4-8.7l2.1-15.2C950.2,1213.7,949.8,1212.7,948.9,1211.8z M949.9,1200
	c-0.9-0.9-2-1.4-3.3-1.4s-2.4,0.5-3.3,1.4c-0.9,0.9-1.4,2-1.4,3.3c0,1.3,0.5,2.4,1.4,3.3c0.9,0.9,2,1.4,3.3,1.4s2.4-0.5,3.3-1.4
	c0.9-0.9,1.4-2,1.4-3.3C951.3,1202,950.8,1200.9,949.9,1200z M938.8,1200c-0.9-0.9-2-1.4-3.3-1.4c-1.3,0-2.4,0.5-3.3,1.4
	c-0.9,0.9-1.3,2-1.3,3.3c0,1.3,0.5,2.4,1.3,3.3c0.9,0.9,2,1.4,3.3,1.4c1.3,0,2.4-0.5,3.3-1.4c0.9-0.9,1.4-2,1.4-3.3
	C940.2,1202,939.7,1200.9,938.8,1200z M1047.2,18.2c-0.9-1.6-2.3-3.1-4.3-4.3s-4.5-1.9-7.6-2h-0.4c-0.3,0-0.5-0.1-0.8-0.1h-18.9V7
	h-9v4.7h-7.6v8.9h7.6v7.4c0,3.2,0.5,6.1,1.3,8.9c0.9,2.8,2.3,5.2,4.4,7.1c2,1.9,4.6,3,7.7,3.2h21.9v-8.9h-19.7
	c-1.7-0.1-3.1-0.7-4.2-1.9c-1.1-1.2-1.8-2.6-2.1-4.1c-0.3-1.5-0.4-3.2-0.4-5v-6.6h21.3c0.7,0,1.2,0.2,1.6,0.5
	c0.4,0.3,0.7,0.6,0.9,0.9c0.2,0.3,0.3,0.7,0.3,1c0,0.3-0.1,0.7-0.3,1c-0.2,0.3-0.5,0.6-0.9,0.9c-0.4,0.3-1,0.4-1.6,0.4h-15.7v8.9
	h14.5c3.1,0,5.7-0.6,7.7-1.9c2-1.3,3.4-2.7,4.3-4.3c0.9-1.6,1.3-3.3,1.3-4.9C1048.6,21.4,1048.1,19.8,1047.2,18.2z M1047.2,1.5
	c-0.9-0.9-2.1-1.4-3.4-1.4s-2.5,0.5-3.4,1.4c-0.9,0.9-1.4,2-1.4,3.4s0.5,2.5,1.4,3.4c0.9,0.9,2.1,1.4,3.4,1.4s2.5-0.5,3.4-1.4
	s1.4-2.1,1.4-3.4S1048.2,2.4,1047.2,1.5z M1035.8,1.5c-0.9-0.9-2.1-1.4-3.4-1.4c-1.3,0-2.5,0.5-3.4,1.4c-0.9,0.9-1.4,2-1.4,3.4
	s0.5,2.5,1.4,3.4c0.9,0.9,2.1,1.4,3.4,1.4c1.3,0,2.5-0.5,3.4-1.4c0.9-0.9,1.4-2.1,1.4-3.4S1036.8,2.4,1035.8,1.5z M1046.2,111.8
	c-0.9-0.8-1.9-1.2-3.1-1.2h-27.9c-1.2,0-2.3,0.4-3.2,1.2c-0.9,0.8-1.5,1.8-1.7,3v0.3c-0.2,1.8-0.6,3.4-1,4.9c-0.5,1.5-1.3,2.8-2.5,4
	c-1.2,1.2-2.7,1.8-4.3,1.9h-3.5v8.7h4.5c3-0.2,5.6-1.2,7.8-3.1c2.2-1.9,4-4.2,5.2-6.9c0.7-1.7,1.3-3.4,1.8-5.3h18.6
	c0.9,0,1.2,0.6,1.1,1.6l-0.6,4.2h-17.3v8.7h15.8c0,0.2-0.1,0.3-0.1,0.5c-0.5,1.5-1.3,2.8-2.5,4c-1.2,1.2-2.7,1.8-4.3,1.9h-8.9v8.7
	h10c3-0.2,5.6-1.2,7.8-3.1c2.2-1.9,3.9-4.2,5.2-6.9c1.2-2.7,2-5.6,2.4-8.7l2.1-15.2C1047.5,113.7,1047.1,112.7,1046.2,111.8z
	 M1047.2,100c-0.9-0.9-2-1.4-3.3-1.4c-1.3,0-2.4,0.5-3.3,1.4c-0.9,0.9-1.3,2-1.3,3.3c0,1.3,0.4,2.4,1.3,3.3c0.9,0.9,2,1.4,3.3,1.4
	c1.3,0,2.4-0.5,3.3-1.4c0.9-0.9,1.4-2,1.4-3.3C1048.6,102,1048.1,100.9,1047.2,100z M1036.1,100c-0.9-0.9-2-1.4-3.3-1.4
	c-1.3,0-2.4,0.5-3.3,1.4c-0.9,0.9-1.4,2-1.4,3.3c0,1.3,0.5,2.4,1.4,3.3c0.9,0.9,2,1.4,3.3,1.4c1.3,0,2.4-0.5,3.3-1.4
	c0.9-0.9,1.4-2,1.4-3.3C1037.4,102,1037,100.9,1036.1,100z M1038,201.6l-1.9,5c-0.7,1.9-1.5,3.7-2.3,5.4c-0.8,1.7-2.1,3.2-3.7,4.5
	c-1.7,1.3-3.4,2-5.3,2.1h-26.2v9.9h21.1v17.2h9.9v-17.5c2.6-0.5,5.1-1.8,7.4-4c2.9-2.8,5.6-7.2,8-13l3.7-9.7H1038z M1030.2,325.8
	l9.2-15.1c0.4-0.7,0.5-1.4,0.5-2.2c0-1.2-0.4-2.3-1.3-3.2c-0.9-0.8-2-1.3-3.2-1.3h-36.8v8.9h29.3l-6.2,10.4c-1.1,1.8-2.2,3.5-3.4,5
	c-1.2,1.5-2.7,2.9-4.5,4.1c-1.8,1.2-3.6,1.8-5.2,1.9h-9.7v8.9h10.4c3.2-0.2,6.5-1.5,9.9-4.1c2-1.5,3.9-3.5,5.8-5.8l10.6,10h13.1
	L1030.2,325.8z M1011.1,419.6v8.1h25v-8.1H1011.1z M1047.2,1018.2c-0.9-1.6-2.3-3.1-4.3-4.3s-4.5-1.9-7.6-2h-0.4
	c-0.3,0-0.5-0.1-0.8-0.1h-18.9v-4.7h-9v4.7h-7.6v8.9h7.6v7.4c0,3.2,0.5,6.1,1.3,8.9c0.9,2.8,2.3,5.2,4.4,7.1c2,1.9,4.6,3,7.7,3.2
	h21.9v-8.9h-19.7c-1.7-0.1-3.1-0.7-4.2-1.9c-1.1-1.2-1.8-2.6-2.1-4.1c-0.3-1.5-0.4-3.2-0.4-5v-6.6h21.3c0.7,0,1.2,0.2,1.6,0.5
	c0.4,0.3,0.7,0.6,0.9,0.9c0.2,0.3,0.3,0.7,0.3,1c0,0.3-0.1,0.7-0.3,1c-0.2,0.3-0.5,0.6-0.9,0.9c-0.4,0.3-1,0.4-1.6,0.4h-15.7v8.9
	h14.5c3.1,0,5.7-0.6,7.7-1.9c2-1.3,3.4-2.7,4.3-4.3c0.9-1.6,1.3-3.3,1.3-4.9C1048.6,1021.4,1048.1,1019.8,1047.2,1018.2z
	 M1047.2,1001.5c-0.9-0.9-2.1-1.4-3.4-1.4s-2.5,0.5-3.4,1.4c-0.9,0.9-1.4,2-1.4,3.4s0.5,2.5,1.4,3.4c0.9,0.9,2.1,1.4,3.4,1.4
	s2.5-0.5,3.4-1.4s1.4-2.1,1.4-3.4S1048.2,1002.4,1047.2,1001.5z M1035.8,1001.5c-0.9-0.9-2.1-1.4-3.4-1.4c-1.3,0-2.5,0.5-3.4,1.4
	c-0.9,0.9-1.4,2-1.4,3.4s0.5,2.5,1.4,3.4c0.9,0.9,2.1,1.4,3.4,1.4c1.3,0,2.5-0.5,3.4-1.4c0.9-0.9,1.4-2.1,1.4-3.4
	S1036.8,1002.4,1035.8,1001.5z M1046.2,1111.8c-0.9-0.8-1.9-1.2-3.1-1.2h-27.9c-1.2,0-2.3,0.4-3.2,1.2c-0.9,0.8-1.5,1.8-1.7,3v0.3
	c-0.2,1.8-0.6,3.4-1,4.9c-0.5,1.5-1.3,2.8-2.5,4c-1.2,1.2-2.7,1.8-4.3,1.9h-3.5v8.6h4.5c3-0.2,5.6-1.2,7.8-3.1
	c2.2-1.9,4-4.2,5.2-6.9c0.7-1.7,1.3-3.4,1.8-5.3h18.6c0.9,0,1.2,0.6,1.1,1.6l-0.6,4.2h-17.3v8.7h15.8c0,0.2-0.1,0.3-0.1,0.5
	c-0.5,1.5-1.3,2.8-2.5,4c-1.2,1.2-2.7,1.8-4.3,1.9h-8.9v8.7h10c3-0.2,5.6-1.2,7.8-3.1c2.2-1.9,3.9-4.2,5.2-6.9
	c1.2-2.7,2-5.6,2.4-8.7l2.1-15.2C1047.5,1113.7,1047.1,1112.7,1046.2,1111.8z M1047.2,1100c-0.9-0.9-2-1.4-3.3-1.4
	c-1.3,0-2.4,0.5-3.3,1.4c-0.9,0.9-1.3,2-1.3,3.3c0,1.3,0.4,2.4,1.3,3.3c0.9,0.9,2,1.4,3.3,1.4c1.3,0,2.4-0.5,3.3-1.4
	c0.9-0.9,1.4-2,1.4-3.3C1048.6,1102,1048.1,1100.9,1047.2,1100z M1036.1,1100c-0.9-0.9-2-1.4-3.3-1.4c-1.3,0-2.4,0.5-3.3,1.4
	c-0.9,0.9-1.4,2-1.4,3.3c0,1.3,0.5,2.4,1.4,3.3c0.9,0.9,2,1.4,3.3,1.4c1.3,0,2.4-0.5,3.3-1.4c0.9-0.9,1.4-2,1.4-3.3
	C1037.4,1102,1037,1100.9,1036.1,1100z M1038,1201.6l-1.9,5c-0.7,1.9-1.5,3.7-2.3,5.4c-0.8,1.7-2.1,3.2-3.7,4.5
	c-1.7,1.3-3.4,2-5.3,2.1h-26.2v9.9h21.1v17.2h9.9v-17.4c2.6-0.4,5.1-1.8,7.4-4c2.9-2.9,5.6-7.2,8-13l3.7-9.7H1038z M1047.2,518.2
	c-0.9-1.6-2.3-3.1-4.3-4.3s-4.5-1.9-7.6-2h-0.4c-0.3,0-0.5-0.1-0.8-0.1h-18.9V507h-9v4.7h-7.6v8.9h7.6v7.4c0,3.2,0.5,6.1,1.3,8.9
	c0.9,2.8,2.3,5.2,4.4,7.1c2,1.9,4.6,3,7.7,3.2h21.9v-8.9h-19.7c-1.7-0.1-3.1-0.7-4.2-1.9c-1.1-1.2-1.8-2.6-2.1-4.1
	c-0.3-1.5-0.4-3.2-0.4-5v-6.6h21.3c0.7,0,1.2,0.2,1.6,0.5c0.4,0.3,0.7,0.6,0.9,0.9c0.2,0.3,0.3,0.7,0.3,1c0,0.3-0.1,0.7-0.3,1
	c-0.2,0.3-0.5,0.6-0.9,0.9c-0.4,0.3-1,0.4-1.6,0.4h-15.7v8.9h14.5c3.1,0,5.7-0.6,7.7-1.9c2-1.3,3.4-2.7,4.3-4.3
	c0.9-1.6,1.3-3.3,1.3-4.9C1048.6,521.4,1048.1,519.8,1047.2,518.2z M1047.2,501.5c-0.9-0.9-2.1-1.4-3.4-1.4s-2.5,0.5-3.4,1.4
	c-0.9,0.9-1.4,2-1.4,3.4s0.5,2.5,1.4,3.4c0.9,0.9,2.1,1.4,3.4,1.4s2.5-0.5,3.4-1.4s1.4-2.1,1.4-3.4S1048.2,502.4,1047.2,501.5z
	 M1035.8,501.5c-0.9-0.9-2.1-1.4-3.4-1.4c-1.3,0-2.5,0.5-3.4,1.4c-0.9,0.9-1.4,2-1.4,3.4s0.5,2.5,1.4,3.4c0.9,0.9,2.1,1.4,3.4,1.4
	c1.3,0,2.5-0.5,3.4-1.4c0.9-0.9,1.4-2.1,1.4-3.4S1036.8,502.4,1035.8,501.5z M1046.2,611.8c-0.9-0.8-1.9-1.2-3.1-1.2h-27.9
	c-1.2,0-2.3,0.4-3.2,1.2c-0.9,0.8-1.5,1.8-1.7,3v0.3c-0.2,1.8-0.6,3.4-1,4.9c-0.5,1.5-1.3,2.8-2.5,4c-1.2,1.2-2.7,1.8-4.3,1.9h-3.5
	v8.7h4.5c3-0.2,5.6-1.2,7.8-3.1c2.2-1.9,4-4.2,5.2-6.9c0.7-1.7,1.3-3.4,1.8-5.3h18.6c0.9,0,1.2,0.6,1.1,1.6l-0.6,4.2h-17.3v8.7h15.8
	c0,0.2-0.1,0.3-0.1,0.5c-0.5,1.5-1.3,2.8-2.5,4c-1.2,1.2-2.7,1.8-4.3,1.9h-8.9v8.7h10c3-0.2,5.6-1.2,7.8-3.1
	c2.2-1.9,3.9-4.2,5.2-6.9c1.2-2.7,2-5.6,2.4-8.7l2.1-15.2C1047.5,613.7,1047.1,612.7,1046.2,611.8z M1047.2,600
	c-0.9-0.9-2-1.4-3.3-1.4c-1.3,0-2.4,0.5-3.3,1.4c-0.9,0.9-1.3,2-1.3,3.3c0,1.3,0.4,2.4,1.3,3.3c0.9,0.9,2,1.4,3.3,1.4
	c1.3,0,2.4-0.5,3.3-1.4c0.9-0.9,1.4-2,1.4-3.3C1048.6,602,1048.1,600.9,1047.2,600z M1036.1,600c-0.9-0.9-2-1.4-3.3-1.4
	c-1.3,0-2.4,0.5-3.3,1.4c-0.9,0.9-1.4,2-1.4,3.3c0,1.3,0.5,2.4,1.4,3.3c0.9,0.9,2,1.4,3.3,1.4c1.3,0,2.4-0.5,3.3-1.4
	c0.9-0.9,1.4-2,1.4-3.3C1037.4,602,1037,600.9,1036.1,600z M1038,701.6l-1.9,5c-0.7,1.9-1.5,3.7-2.3,5.4c-0.8,1.7-2.1,3.2-3.7,4.5
	c-1.7,1.3-3.4,2-5.3,2.1h-26.2v9.9h21.1v17.2h9.9v-17.5c2.6-0.5,5.1-1.8,7.4-4c2.9-2.8,5.6-7.2,8-13l3.7-9.7H1038z M1030.2,825.8
	l9.2-15.1c0.4-0.7,0.5-1.4,0.5-2.2c0-1.2-0.4-2.3-1.3-3.2c-0.9-0.8-2-1.3-3.2-1.3h-36.8v8.9h29.3l-6.2,10.4c-1.1,1.8-2.2,3.5-3.4,5
	c-1.2,1.5-2.7,2.9-4.5,4.1c-1.8,1.2-3.6,1.8-5.2,1.9h-9.7v8.9h10.4c3.2-0.2,6.5-1.5,9.9-4.1c2-1.5,3.9-3.5,5.8-5.8l10.6,10h13.1
	L1030.2,825.8z M1011.1,919.6v8.1h25v-8.1H1011.1z M1146.2,11.8c-0.9-0.8-1.9-1.2-3.1-1.2h-27.9c-1.2,0-2.3,0.4-3.2,1.2
	c-0.9,0.8-1.5,1.8-1.7,3V15c-0.2,1.8-0.6,3.4-1,4.9c-0.5,1.5-1.3,2.8-2.6,4c-1.2,1.2-2.7,1.8-4.3,1.9h-3.5v8.7h4.5
	c3-0.2,5.6-1.2,7.8-3.1c2.2-1.9,3.9-4.2,5.2-6.9c0.7-1.7,1.3-3.4,1.8-5.3h18.6c0.9,0,1.2,0.6,1.1,1.6l-0.6,4.2h-17.3v8.7h15.8
	c0,0.2-0.1,0.3-0.1,0.5c-0.5,1.5-1.3,2.8-2.5,4c-1.2,1.2-2.7,1.8-4.3,1.9h-8.9v8.7h10c3-0.2,5.6-1.2,7.8-3.1
	c2.2-1.9,3.9-4.2,5.2-6.9c1.2-2.7,2-5.6,2.4-8.7l2.1-15.2C1147.5,13.7,1147.1,12.7,1146.2,11.8z M1147.2,0c-0.9-0.9-2-1.4-3.3-1.4
	c-1.3,0-2.4,0.5-3.3,1.4c-0.9,0.9-1.3,2-1.3,3.3c0,1.3,0.4,2.4,1.3,3.3c0.9,0.9,2,1.4,3.3,1.4c1.3,0,2.4-0.5,3.3-1.4
	c0.9-0.9,1.4-2,1.4-3.3C1148.6,2,1148.1,0.9,1147.2,0z M1136.1,0c-0.9-0.9-2-1.4-3.3-1.4c-1.3,0-2.4,0.5-3.3,1.4
	c-0.9,0.9-1.4,2-1.4,3.3c0,1.3,0.5,2.4,1.4,3.3c0.9,0.9,2,1.4,3.3,1.4c1.3,0,2.4-0.5,3.3-1.4c0.9-0.9,1.4-2,1.4-3.3
	C1137.4,2,1137,0.9,1136.1,0z M1138,101.6l-1.9,5c-0.7,1.9-1.5,3.7-2.3,5.4c-0.8,1.7-2.1,3.2-3.7,4.5c-1.7,1.3-3.4,2-5.3,2.1h-26.2
	v9.9h21.1v17.2h9.9v-17.5c2.6-0.5,5.1-1.8,7.4-4c2.9-2.8,5.6-7.2,8-13l3.7-9.7H1138z M1130.2,225.8l9.2-15.1
	c0.4-0.7,0.5-1.4,0.5-2.2c0-1.2-0.4-2.3-1.3-3.2c-0.9-0.8-2-1.3-3.2-1.3h-36.8v8.9h29.3l-6.2,10.4c-1.1,1.8-2.2,3.5-3.4,5
	c-1.2,1.5-2.7,2.9-4.5,4.1c-1.8,1.2-3.6,1.8-5.2,1.9h-9.7v8.9h10.4c3.2-0.2,6.5-1.5,9.9-4.1c2-1.5,3.9-3.5,5.8-5.8l10.6,10h13.1
	L1130.2,225.8z M1111.1,319.6v8.1h25v-8.1H1111.1z M1147.2,918.2c-0.9-1.6-2.3-3.1-4.3-4.3s-4.5-1.9-7.6-2h-0.4
	c-0.3,0-0.5-0.1-0.8-0.1h-18.9V907h-9v4.7h-7.6v8.9h7.6v7.4c0.1,3.2,0.5,6.1,1.3,8.9c0.9,2.8,2.3,5.2,4.3,7.1c2,1.9,4.6,3,7.7,3.2
	h21.9v-8.9h-19.7c-1.7-0.1-3.1-0.7-4.2-1.9c-1.1-1.2-1.8-2.6-2.1-4.1c-0.3-1.5-0.4-3.2-0.4-5v-6.6h21.3c0.7,0,1.2,0.2,1.6,0.5
	c0.4,0.3,0.7,0.6,0.9,0.9c0.2,0.3,0.3,0.7,0.3,1c0,0.3-0.1,0.7-0.3,1c-0.2,0.3-0.5,0.6-0.9,0.9c-0.4,0.3-1,0.4-1.6,0.4h-15.7v8.9
	h14.5c3.1,0,5.7-0.6,7.7-1.9c2-1.3,3.4-2.7,4.3-4.3c0.9-1.6,1.3-3.3,1.3-4.9C1148.6,921.4,1148.1,919.8,1147.2,918.2z M1147.2,901.5
	c-0.9-0.9-2.1-1.4-3.4-1.4s-2.5,0.5-3.4,1.4c-0.9,0.9-1.4,2-1.4,3.4s0.5,2.5,1.4,3.4c0.9,0.9,2.1,1.4,3.4,1.4s2.5-0.5,3.4-1.4
	s1.4-2.1,1.4-3.4S1148.2,902.4,1147.2,901.5z M1135.8,901.5c-0.9-0.9-2.1-1.4-3.4-1.4c-1.3,0-2.5,0.5-3.4,1.4
	c-0.9,0.9-1.4,2-1.4,3.4s0.5,2.5,1.4,3.4c0.9,0.9,2.1,1.4,3.4,1.4c1.3,0,2.5-0.5,3.4-1.4c0.9-0.9,1.4-2.1,1.4-3.4
	S1136.8,902.4,1135.8,901.5z M1146.2,1011.8c-0.9-0.8-1.9-1.2-3.1-1.2h-27.9c-1.2,0-2.3,0.4-3.2,1.2c-0.9,0.8-1.5,1.8-1.7,3v0.3
	c-0.2,1.8-0.6,3.4-1,4.9c-0.5,1.5-1.3,2.8-2.6,4c-1.2,1.2-2.7,1.8-4.3,1.9h-3.5v8.6h4.5c3-0.2,5.6-1.2,7.8-3.1
	c2.2-1.9,3.9-4.2,5.2-6.9c0.7-1.7,1.3-3.4,1.8-5.3h18.6c0.9,0,1.2,0.6,1.1,1.6l-0.6,4.2h-17.3v8.7h15.8c0,0.2-0.1,0.3-0.1,0.5
	c-0.5,1.5-1.3,2.8-2.5,4c-1.2,1.2-2.7,1.8-4.3,1.9h-8.9v8.7h10c3-0.2,5.6-1.2,7.8-3.1c2.2-1.9,3.9-4.2,5.2-6.9
	c1.2-2.7,2-5.6,2.4-8.7l2.1-15.2C1147.5,1013.7,1147.1,1012.7,1146.2,1011.8z M1147.2,1000c-0.9-0.9-2-1.4-3.3-1.4
	c-1.3,0-2.4,0.5-3.3,1.4c-0.9,0.9-1.3,2-1.3,3.3c0,1.3,0.4,2.4,1.3,3.3c0.9,0.9,2,1.4,3.3,1.4c1.3,0,2.4-0.5,3.3-1.4
	c0.9-0.9,1.4-2,1.4-3.3C1148.6,1002,1148.1,1000.9,1147.2,1000z M1136.1,1000c-0.9-0.9-2-1.4-3.3-1.4c-1.3,0-2.4,0.5-3.3,1.4
	c-0.9,0.9-1.4,2-1.4,3.3c0,1.3,0.5,2.4,1.4,3.3c0.9,0.9,2,1.4,3.3,1.4c1.3,0,2.4-0.5,3.3-1.4c0.9-0.9,1.4-2,1.4-3.3
	C1137.4,1002,1137,1000.9,1136.1,1000z M1138,1101.6l-1.9,5c-0.7,1.9-1.5,3.7-2.3,5.4c-0.8,1.7-2.1,3.2-3.7,4.5
	c-1.7,1.3-3.4,2-5.3,2.1h-26.2v9.9h21.1v17.2h9.9v-17.4c2.6-0.4,5.1-1.8,7.4-4c2.9-2.9,5.6-7.2,8-13l3.7-9.7H1138z M1130.2,1225.8
	l9.2-15.1c0.4-0.7,0.5-1.4,0.5-2.2c0-1.2-0.4-2.3-1.3-3.2c-0.9-0.8-2-1.3-3.2-1.3h-36.8v8.9h29.3l-6.2,10.4c-1.1,1.8-2.2,3.5-3.4,5
	c-1.2,1.5-2.7,2.9-4.5,4.1c-1.8,1.2-3.6,1.8-5.2,1.9h-9.7v8.9h10.4c3.2-0.2,6.5-1.6,9.9-4.1c2-1.5,3.9-3.5,5.8-5.8l10.6,10h13.1
	L1130.2,1225.8z M1147.2,418.2c-0.9-1.6-2.3-3.1-4.3-4.3s-4.5-1.9-7.6-2h-0.4c-0.3,0-0.5-0.1-0.8-0.1h-18.9V407h-9v4.7h-7.6v8.9h7.6
	v7.4c0.1,3.2,0.5,6.1,1.3,8.9c0.9,2.8,2.3,5.2,4.3,7.1c2,1.9,4.6,3,7.7,3.2h21.9v-8.9h-19.7c-1.7-0.1-3.1-0.7-4.2-1.9
	c-1.1-1.2-1.8-2.6-2.1-4.1c-0.3-1.5-0.4-3.2-0.4-5v-6.6h21.3c0.7,0,1.2,0.2,1.6,0.5c0.4,0.3,0.7,0.6,0.9,0.9c0.2,0.3,0.3,0.7,0.3,1
	c0,0.3-0.1,0.7-0.3,1c-0.2,0.3-0.5,0.6-0.9,0.9c-0.4,0.3-1,0.4-1.6,0.4h-15.7v8.9h14.5c3.1,0,5.7-0.6,7.7-1.9c2-1.3,3.4-2.7,4.3-4.3
	c0.9-1.6,1.3-3.3,1.3-4.9C1148.6,421.4,1148.1,419.8,1147.2,418.2z M1147.2,401.5c-0.9-0.9-2.1-1.4-3.4-1.4s-2.5,0.5-3.4,1.4
	c-0.9,0.9-1.4,2-1.4,3.4s0.5,2.5,1.4,3.4c0.9,0.9,2.1,1.4,3.4,1.4s2.5-0.5,3.4-1.4s1.4-2.1,1.4-3.4S1148.2,402.4,1147.2,401.5z
	 M1135.8,401.5c-0.9-0.9-2.1-1.4-3.4-1.4c-1.3,0-2.5,0.5-3.4,1.4c-0.9,0.9-1.4,2-1.4,3.4s0.5,2.5,1.4,3.4c0.9,0.9,2.1,1.4,3.4,1.4
	c1.3,0,2.5-0.5,3.4-1.4c0.9-0.9,1.4-2.1,1.4-3.4S1136.8,402.4,1135.8,401.5z M1146.2,511.8c-0.9-0.8-1.9-1.2-3.1-1.2h-27.9
	c-1.2,0-2.3,0.4-3.2,1.2c-0.9,0.8-1.5,1.8-1.7,3v0.3c-0.2,1.8-0.6,3.4-1,4.9c-0.5,1.5-1.3,2.8-2.6,4c-1.2,1.2-2.7,1.8-4.3,1.9h-3.5
	v8.7h4.5c3-0.2,5.6-1.2,7.8-3.1c2.2-1.9,3.9-4.2,5.2-6.9c0.7-1.7,1.3-3.4,1.8-5.3h18.6c0.9,0,1.2,0.6,1.1,1.6l-0.6,4.2h-17.3v8.7
	h15.8c0,0.2-0.1,0.3-0.1,0.5c-0.5,1.5-1.3,2.8-2.5,4c-1.2,1.2-2.7,1.8-4.3,1.9h-8.9v8.7h10c3-0.2,5.6-1.2,7.8-3.1
	c2.2-1.9,3.9-4.2,5.2-6.9c1.2-2.7,2-5.6,2.4-8.7l2.1-15.2C1147.5,513.7,1147.1,512.7,1146.2,511.8z M1147.2,500
	c-0.9-0.9-2-1.4-3.3-1.4c-1.3,0-2.4,0.5-3.3,1.4c-0.9,0.9-1.3,2-1.3,3.3c0,1.3,0.4,2.4,1.3,3.3c0.9,0.9,2,1.4,3.3,1.4
	c1.3,0,2.4-0.5,3.3-1.4c0.9-0.9,1.4-2,1.4-3.3C1148.6,502,1148.1,500.9,1147.2,500z M1136.1,500c-0.9-0.9-2-1.4-3.3-1.4
	c-1.3,0-2.4,0.5-3.3,1.4c-0.9,0.9-1.4,2-1.4,3.3c0,1.3,0.5,2.4,1.4,3.3c0.9,0.9,2,1.4,3.3,1.4c1.3,0,2.4-0.5,3.3-1.4
	c0.9-0.9,1.4-2,1.4-3.3C1137.4,502,1137,500.9,1136.1,500z M1138,601.6l-1.9,5c-0.7,1.9-1.5,3.7-2.3,5.4c-0.8,1.7-2.1,3.2-3.7,4.5
	c-1.7,1.3-3.4,2-5.3,2.1h-26.2v9.9h21.1v17.2h9.9v-17.5c2.6-0.5,5.1-1.8,7.4-4c2.9-2.8,5.6-7.2,8-13l3.7-9.7H1138z M1130.2,725.8
	l9.2-15.1c0.4-0.7,0.5-1.4,0.5-2.2c0-1.2-0.4-2.3-1.3-3.2c-0.9-0.8-2-1.3-3.2-1.3h-36.8v8.9h29.3l-6.2,10.4c-1.1,1.8-2.2,3.5-3.4,5
	c-1.2,1.5-2.7,2.9-4.5,4.1c-1.8,1.2-3.6,1.8-5.2,1.9h-9.7v8.9h10.4c3.2-0.2,6.5-1.5,9.9-4.1c2-1.5,3.9-3.5,5.8-5.8l10.6,10h13.1
	L1130.2,725.8z M1111.1,819.6v8.1h25v-8.1H1111.1z M1238,1.6l-1.9,5c-0.7,1.9-1.5,3.7-2.3,5.4c-0.8,1.7-2.1,3.2-3.7,4.5
	c-1.7,1.3-3.4,2-5.3,2.1h-26.2v9.9h21.1v17.2h9.9V28.3c2.6-0.5,5.1-1.8,7.4-4c2.9-2.8,5.6-7.2,8-13l3.7-9.7H1238z M1230.2,125.8
	l9.2-15.1c0.4-0.7,0.5-1.4,0.5-2.2c0-1.2-0.4-2.3-1.3-3.2c-0.9-0.8-2-1.3-3.2-1.3h-36.8v8.9h29.3l-6.2,10.4c-1.1,1.8-2.2,3.5-3.4,5
	c-1.2,1.5-2.7,2.9-4.5,4.1c-1.8,1.2-3.6,1.8-5.2,1.9h-9.7v8.9h10.4c3.2-0.2,6.5-1.5,9.9-4.1c2-1.5,3.9-3.5,5.8-5.8l10.6,10h13.1
	L1230.2,125.8z M1211.1,219.6v8.1h25v-8.1H1211.1z M1247.2,818.2c-0.9-1.6-2.3-3.1-4.3-4.3s-4.5-1.9-7.6-2h-0.4
	c-0.3,0-0.5-0.1-0.8-0.1h-18.9V807h-9v4.7h-7.6v8.9h7.6v7.4c0.1,3.2,0.5,6.1,1.3,8.9c0.9,2.8,2.3,5.2,4.3,7.1c2,1.9,4.6,3,7.7,3.2
	h21.9v-8.9h-19.7c-1.7-0.1-3.1-0.7-4.2-1.9c-1.1-1.2-1.8-2.6-2.1-4.1c-0.3-1.5-0.4-3.2-0.4-5v-6.6h21.3c0.7,0,1.2,0.2,1.6,0.5
	c0.4,0.3,0.7,0.6,0.9,0.9c0.2,0.3,0.3,0.7,0.3,1c0,0.3-0.1,0.7-0.3,1c-0.2,0.3-0.5,0.6-0.9,0.9c-0.4,0.3-1,0.4-1.6,0.4h-15.7v8.9
	h14.5c3.1,0,5.7-0.6,7.7-1.9c2-1.3,3.4-2.7,4.3-4.3c0.9-1.6,1.3-3.3,1.3-4.9C1248.6,821.4,1248.1,819.8,1247.2,818.2z M1247.2,801.5
	c-0.9-0.9-2.1-1.4-3.4-1.4s-2.5,0.5-3.4,1.4c-0.9,0.9-1.4,2-1.4,3.4s0.5,2.5,1.4,3.4c0.9,0.9,2.1,1.4,3.4,1.4s2.5-0.5,3.4-1.4
	s1.4-2.1,1.4-3.4S1248.2,802.4,1247.2,801.5z M1235.8,801.5c-0.9-0.9-2.1-1.4-3.4-1.4c-1.3,0-2.5,0.5-3.4,1.4
	c-0.9,0.9-1.4,2-1.4,3.4s0.5,2.5,1.4,3.4c0.9,0.9,2.1,1.4,3.4,1.4c1.3,0,2.5-0.5,3.4-1.4c0.9-0.9,1.4-2.1,1.4-3.4
	S1236.8,802.4,1235.8,801.5z M1246.2,911.8c-0.9-0.8-1.9-1.2-3.1-1.2h-27.9c-1.2,0-2.3,0.4-3.2,1.2c-0.9,0.8-1.5,1.8-1.7,3v0.3
	c-0.2,1.8-0.6,3.4-1,4.9c-0.5,1.5-1.3,2.8-2.6,4c-1.2,1.2-2.7,1.8-4.3,1.9h-3.5v8.7h4.5c3-0.2,5.6-1.2,7.8-3.1
	c2.2-1.9,3.9-4.2,5.2-6.9c0.7-1.7,1.3-3.4,1.8-5.3h18.6c0.9,0,1.2,0.6,1.1,1.6l-0.6,4.2h-17.3v8.7h15.8c0,0.2-0.1,0.3-0.1,0.5
	c-0.5,1.5-1.3,2.8-2.5,4c-1.2,1.2-2.7,1.8-4.3,1.9h-8.9v8.7h10c3-0.2,5.6-1.2,7.8-3.1c2.2-1.9,3.9-4.2,5.2-6.9
	c1.2-2.7,2-5.6,2.4-8.7l2.1-15.2C1247.5,913.7,1247.1,912.7,1246.2,911.8z M1247.2,900c-0.9-0.9-2-1.4-3.3-1.4
	c-1.3,0-2.4,0.5-3.3,1.4c-0.9,0.9-1.3,2-1.3,3.3c0,1.3,0.4,2.4,1.3,3.3c0.9,0.9,2,1.4,3.3,1.4c1.3,0,2.4-0.5,3.3-1.4
	c0.9-0.9,1.4-2,1.4-3.3C1248.6,902,1248.1,900.9,1247.2,900z M1236.1,900c-0.9-0.9-2-1.4-3.3-1.4c-1.3,0-2.4,0.5-3.3,1.4
	c-0.9,0.9-1.4,2-1.4,3.3c0,1.3,0.5,2.4,1.4,3.3c0.9,0.9,2,1.4,3.3,1.4c1.3,0,2.4-0.5,3.3-1.4c0.9-0.9,1.4-2,1.4-3.3
	C1237.4,902,1237,900.9,1236.1,900z M1238,1001.6l-1.9,5c-0.7,1.9-1.5,3.7-2.3,5.4c-0.8,1.7-2.1,3.2-3.7,4.5c-1.7,1.3-3.4,2-5.3,2.1
	h-26.2v9.9h21.1v17.2h9.9v-17.4c2.6-0.4,5.1-1.8,7.4-4c2.9-2.9,5.6-7.2,8-13l3.7-9.7H1238z M1230.2,1125.8l9.2-15.1
	c0.4-0.7,0.5-1.4,0.5-2.2c0-1.2-0.4-2.3-1.3-3.2c-0.9-0.8-2-1.3-3.2-1.3h-36.8v8.9h29.3l-6.2,10.4c-1.1,1.8-2.2,3.5-3.4,5
	c-1.2,1.5-2.7,2.9-4.5,4.1c-1.8,1.2-3.6,1.8-5.2,1.9h-9.7v8.9h10.4c3.2-0.2,6.5-1.6,9.9-4.1c2-1.5,3.9-3.5,5.8-5.8l10.6,10h13.1
	L1230.2,1125.8z M1211.1,1219.6v8.1h25v-8.1H1211.1z M1247.2,318.2c-0.9-1.6-2.3-3.1-4.3-4.3s-4.5-1.9-7.6-2h-0.4
	c-0.3,0-0.5-0.1-0.8-0.1h-18.9V307h-9v4.7h-7.6v8.9h7.6v7.4c0.1,3.2,0.5,6.1,1.3,8.9c0.9,2.8,2.3,5.2,4.3,7.1c2,1.9,4.6,3,7.7,3.2
	h21.9v-8.9h-19.7c-1.7-0.1-3.1-0.7-4.2-1.9c-1.1-1.2-1.8-2.6-2.1-4.1c-0.3-1.5-0.4-3.2-0.4-5v-6.6h21.3c0.7,0,1.2,0.2,1.6,0.5
	c0.4,0.3,0.7,0.6,0.9,0.9c0.2,0.3,0.3,0.7,0.3,1c0,0.3-0.1,0.7-0.3,1c-0.2,0.3-0.5,0.6-0.9,0.9c-0.4,0.3-1,0.4-1.6,0.4h-15.7v8.9
	h14.5c3.1,0,5.7-0.6,7.7-1.9c2-1.3,3.4-2.7,4.3-4.3c0.9-1.6,1.3-3.3,1.3-4.9C1248.6,321.4,1248.1,319.8,1247.2,318.2z M1247.2,301.5
	c-0.9-0.9-2.1-1.4-3.4-1.4s-2.5,0.5-3.4,1.4c-0.9,0.9-1.4,2-1.4,3.4s0.5,2.5,1.4,3.4c0.9,0.9,2.1,1.4,3.4,1.4s2.5-0.5,3.4-1.4
	s1.4-2.1,1.4-3.4S1248.2,302.4,1247.2,301.5z M1235.8,301.5c-0.9-0.9-2.1-1.4-3.4-1.4c-1.3,0-2.5,0.5-3.4,1.4
	c-0.9,0.9-1.4,2-1.4,3.4s0.5,2.5,1.4,3.4c0.9,0.9,2.1,1.4,3.4,1.4c1.3,0,2.5-0.5,3.4-1.4c0.9-0.9,1.4-2.1,1.4-3.4
	S1236.8,302.4,1235.8,301.5z M1246.2,411.8c-0.9-0.8-1.9-1.2-3.1-1.2h-27.9c-1.2,0-2.3,0.4-3.2,1.2c-0.9,0.8-1.5,1.8-1.7,3v0.3
	c-0.2,1.8-0.6,3.4-1,4.9c-0.5,1.5-1.3,2.8-2.6,4c-1.2,1.2-2.7,1.8-4.3,1.9h-3.5v8.7h4.5c3-0.2,5.6-1.2,7.8-3.1
	c2.2-1.9,3.9-4.2,5.2-6.9c0.7-1.7,1.3-3.4,1.8-5.3h18.6c0.9,0,1.2,0.6,1.1,1.6l-0.6,4.2h-17.3v8.7h15.8c0,0.2-0.1,0.3-0.1,0.5
	c-0.5,1.5-1.3,2.8-2.5,4c-1.2,1.2-2.7,1.8-4.3,1.9h-8.9v8.7h10c3-0.2,5.6-1.2,7.8-3.1c2.2-1.9,3.9-4.2,5.2-6.9
	c1.2-2.7,2-5.6,2.4-8.7l2.1-15.2C1247.5,413.7,1247.1,412.7,1246.2,411.8z M1247.2,400c-0.9-0.9-2-1.4-3.3-1.4
	c-1.3,0-2.4,0.5-3.3,1.4c-0.9,0.9-1.3,2-1.3,3.3c0,1.3,0.4,2.4,1.3,3.3c0.9,0.9,2,1.4,3.3,1.4c1.3,0,2.4-0.5,3.3-1.4
	c0.9-0.9,1.4-2,1.4-3.3C1248.6,402,1248.1,400.9,1247.2,400z M1236.1,400c-0.9-0.9-2-1.4-3.3-1.4c-1.3,0-2.4,0.5-3.3,1.4
	c-0.9,0.9-1.4,2-1.4,3.3c0,1.3,0.5,2.4,1.4,3.3c0.9,0.9,2,1.4,3.3,1.4c1.3,0,2.4-0.5,3.3-1.4c0.9-0.9,1.4-2,1.4-3.3
	C1237.4,402,1237,400.9,1236.1,400z M1238,501.6l-1.9,5c-0.7,1.9-1.5,3.7-2.3,5.4c-0.8,1.7-2.1,3.2-3.7,4.5c-1.7,1.3-3.4,2-5.3,2.1
	h-26.2v9.9h21.1v17.2h9.9v-17.5c2.6-0.5,5.1-1.8,7.4-4c2.9-2.8,5.6-7.2,8-13l3.7-9.7H1238z M1230.2,625.8l9.2-15.1
	c0.4-0.7,0.5-1.4,0.5-2.2c0-1.2-0.4-2.3-1.3-3.2c-0.9-0.8-2-1.3-3.2-1.3h-36.8v8.9h29.3l-6.2,10.4c-1.1,1.8-2.2,3.5-3.4,5
	c-1.2,1.5-2.7,2.9-4.5,4.1c-1.8,1.2-3.6,1.8-5.2,1.9h-9.7v8.9h10.4c3.2-0.2,6.5-1.5,9.9-4.1c2-1.5,3.9-3.5,5.8-5.8l10.6,10h13.1
	L1230.2,625.8z M1211.1,719.6v8.1h25v-8.1H1211.1z"/>
<rect x="0" y="0" class="st0" width="450" height="450"/>
</svg>
