<?xml version="1.0" encoding="utf-8"?>
<!-- Generator: Adobe Illustrator 24.2.3, SVG Export Plug-In . SVG Version: 6.00 Build 0)  -->
<svg version="1.1" id="Layer_1" xmlns="http://www.w3.org/2000/svg" xmlns:xlink="http://www.w3.org/1999/xlink" x="0px" y="0px"
	 viewBox="0 0 140 140" style="enable-background:new 0 0 140 140;" xml:space="preserve">
<style type="text/css">
	.st0{display:none;opacity:0.1;fill:#4450E5;}
	.st1{fill:none;stroke:#EC407A;stroke-miterlimit:10;}
	.st2{opacity:0.1;fill:#EC407A;}
	.st3{opacity:0.5;fill:#EC407A;}
</style>
<image style="display:none;overflow:visible;" width="140" height="140" xlink:href="ad.png" >
</image>
<circle class="st0" cx="70" cy="70" r="56"/>
<path class="st1" d="M44,88l-10.2,8.4C33.3,96.8,32.6,97,32,97h0c-1.2,0-2.3-0.8-2.7-1.9l-7.8-22.5c-0.3-1-0.1-2.1,0.6-2.8l0,0
	c0.5-0.5,1.2-0.8,1.9-0.8H37l54-42.2c0.7-0.5,1.5-0.8,2.3-0.8l0,0c1.6,0,3,1,3.6,2.5l19.2,54.1c0.5,1.5,0.2,3.1-1,4.2l0,0
	c-0.8,0.8-1.8,1.2-2.9,1.2H44z M44,88l-7.3-19 M52.5,88v8.5c0,4.4,3.6,8,8,8h21c4.4,0,8-3.6,8-8V88 M58.5,88v7.5c0,2.2,1.8,4,4,4h17
	c2.2,0,4-1.8,4-4V88"/>
<path class="st2" d="M58.5,88v7.5c0,2.2,1.8,4,4,4h17c2.2,0,4-1.8,4-4V88H58.5z M70,14c-30.9,0-56,25.1-56,56s25.1,56,56,56
	s56-25.1,56-56S100.9,14,70,14z M112.3,88H89.5v8.5c0,4.4-3.6,8-8,8h-21c-4.4,0-8-3.6-8-8V88H44l-10.2,8.4C33.3,96.8,32.7,97,32,97
	c-1.2,0-2.3-0.8-2.7-1.9l-7.8-22.5c-0.3-1-0.1-2.1,0.6-2.8c0.5-0.5,1.2-0.8,1.9-0.8H37l54-42.2c0.7-0.5,1.5-0.8,2.3-0.8
	c0.8,0,1.6,0.3,2.2,0.7c0.6,0.4,1.1,1.1,1.4,1.8l19.2,54.1c0.5,1.5,0.1,3.1-1,4.2C114.4,87.6,113.4,88,112.3,88z M58.5,95.5
	c0,2.2,1.8,4,4,4h17c2.2,0,4-1.8,4-4V88h-25V95.5z M58.5,88v7.5c0,2.2,1.8,4,4,4h17c2.2,0,4-1.8,4-4V88H58.5z"/>
<path class="st3" d="M89.5,88v8.5c0,4.4-3.6,8-8,8h-21c-4.4,0-8-3.6-8-8V88h6v7.5c0,2.2,1.8,4,4,4h17c2.2,0,4-1.8,4-4V88H89.5z"/>
</svg>
