<?xml version="1.0" encoding="utf-8"?>
<!-- Generator: Adobe Illustrator 23.0.3, SVG Export Plug-In . SVG Version: 6.00 Build 0)  -->
<svg version="1.1" id="Layer_1" xmlns="http://www.w3.org/2000/svg" xmlns:xlink="http://www.w3.org/1999/xlink" x="0px" y="0px"
	 viewBox="0 0 88.5 21" style="enable-background:new 0 0 88.5 21;" xml:space="preserve">
<style type="text/css">
	.st0{fill:#FFFFFF;}
</style>
<path class="st0" d="M49.6,0.1v6.3C49.3,6,48.8,5.6,48,5.2c-0.8-0.4-1.7-0.6-2.9-0.6c-1.3,0-2.5,0.3-3.7,1v0L39.3,11l-1.4,3.3
	c0.3,1.8,1,3.3,2.2,4.5c1.4,1.3,3.1,2,5.2,2c2.1,0,3.6-0.7,4.5-2.2v1.7h4.5V0.1H49.6z M46.1,16.7c-2.2,0-3.9-1.8-3.9-3.9
	c0-2.2,1.8-3.9,3.9-3.9c2.2,0,3.9,1.8,3.9,3.9C50,14.9,48.3,16.7,46.1,16.7z M55.8,1.6v3.3h4.2V1.6H55.8z M55.8,6.3v14h1.7l2.6,0
	v-14H55.8z M70.4,11.9c-0.6-0.3-1.5-0.7-2.9-1.1c0,0,0,0,0,0c-0.1,0-0.2-0.1-0.3-0.1c-0.4-0.1-0.7-0.2-0.9-0.3
	c-0.2-0.1-0.5-0.2-0.7-0.3c0,0-0.1,0-0.1,0c0,0-0.1,0-0.1,0c-0.2-0.1-0.3-0.2-0.4-0.3c-0.1-0.1-0.2-0.3-0.2-0.5
	c0-0.3,0.1-0.5,0.3-0.7c0.2-0.2,0.5-0.3,1-0.3c0.3,0,0.6,0,0.8,0.1c0.2,0.1,0.4,0.2,0.4,0.4c0.1,0.1,0.1,0.3,0.2,0.4
	c0,0.1,0,0.2,0,0.3h4.5c-0.1-0.7-0.3-1.4-0.6-2c-0.3-0.6-0.7-1-1.1-1.4C70,5.5,69.5,5.2,69,5c-0.5-0.2-1-0.4-1.5-0.4
	c-0.4-0.1-0.9-0.1-1.3-0.1h-0.1c-0.9,0-1.7,0.1-2.5,0.4c0,0,0,0,0,0C63.4,5,62,5.7,61.2,7.3c-0.1,0.2-0.9,2.1,0,4
	c0,0,0.8,1.7,2.7,2.4c0.5,0.2,1.1,0.4,1.1,0.4c0.4,0.1,0.7,0.3,1,0.3c0.2,0.1,0.5,0.2,0.7,0.3c0.3,0.1,0.5,0.2,0.6,0.3
	c0.1,0.1,0.2,0.2,0.4,0.3l0,0c0.1,0.1,0.2,0.2,0.2,0.3c0,0.1,0.1,0.2,0.1,0.4c0,0.4-0.2,0.7-0.5,0.9c-0.3,0.2-0.7,0.3-1.1,0.3
	c-0.1,0-0.2,0-0.3,0c-0.1,0-0.3-0.1-0.5-0.1c-0.2-0.1-0.4-0.2-0.6-0.4c-0.2-0.2-0.3-0.5-0.3-0.8h-4.6c0.1,1,0.4,1.8,0.8,2.5
	c0.4,0.7,1,1.2,1.6,1.6c0.6,0.4,1.3,0.6,1.9,0.8c0.6,0.2,1.3,0.2,1.9,0.2c1.1,0,2.2-0.2,3.1-0.6c0.9-0.4,1.7-1,2.3-1.9
	c0.6-0.8,0.9-1.8,0.9-2.9C72.6,13.9,71.8,12.7,70.4,11.9z M88.5,14.3c0.1-0.5,0.2-1.1,0.2-1.6c0-0.5,0-1-0.1-1.5
	c-0.7-3.8-4.1-6.7-8.1-6.7c-4.5,0-8.2,3.7-8.2,8.2c0,4.5,3.7,8.2,8.2,8.2c3.4,0,6.3-2.1,7.6-5h-4.9c-0.7,0.6-1.6,0.9-2.7,0.9
	c-1.9,0-3.4-1.1-3.6-2.5H88.5z M80.4,8.6c1.9,0,3.4,1.1,3.6,2.5h-7.2C77,9.7,78.6,8.6,80.4,8.6z M0,8.6V5.1h2.2v-5h4.5v5h2.2v3.6
	H6.7v11.7l-2.7,0H2.2V8.6H0z M18.9,4.9c-0.4-0.1-0.8-0.2-1.3-0.2c-0.1,0-0.2,0-0.3,0c-0.1,0-0.2,0-0.3,0c-1,0.1-2,0.4-2.8,0.9
	C14,5.8,13.8,6,13.5,6.2V0.1H8.9v20.2h4.7v-8.5c0-0.1,0-0.2,0-0.3c0,0,0-0.1,0-0.1c0-0.2,0-0.4,0.1-0.5c0.2-0.9,0.9-1.6,1.7-1.8
	C15.5,9,15.8,8.9,16,8.9c0.2,0,0.4,0,0.6,0.1c0,0,0,0,0,0c1,0.2,1.8,1.1,1.9,2.2c0,0,0,0.1,0,0.1v0.1c0,0.2,0,0.4,0,0.6v8.3H23v-10
	C23,7.7,21.3,5.6,18.9,4.9z M31.2,4.5c-4.5,0-8.2,3.7-8.2,8.2s3.7,8.2,8.2,8.2c1.7,0,3.3-0.5,4.6-1.4l1.5-3.6h-3.4
	c-0.7,0.6-1.6,0.9-2.7,0.9c-1.9,0-3.4-1.1-3.6-2.5h10.3l1.4-3.3v0C38.5,7.3,35.2,4.5,31.2,4.5z M27.6,11.2c0.2-1.4,1.7-2.5,3.6-2.5
	c1.9,0,3.4,1.1,3.6,2.5H27.6z"/>
</svg>
