<?xml version="1.0" encoding="utf-8"?>
<!-- Generator: Adobe Illustrator 23.0.3, SVG Export Plug-In . SVG Version: 6.00 Build 0)  -->
<svg version="1.1" id="Layer_1" xmlns="http://www.w3.org/2000/svg" xmlns:xlink="http://www.w3.org/1999/xlink" x="0px" y="0px"
	 viewBox="0 0 24 24" style="enable-background:new 0 0 24 24;" xml:space="preserve">
<path d="M19,3H5C3.9,3,3,3.9,3,5v14c0,1.1,0.9,2,2,2h14c1.1,0,2-0.9,2-2V5C21,3.9,20.1,3,19,3z M19,19H5V5h14V19z M6.2,16.6h2.1c0.1,0,0.1,0,0.1-0.1L9,14.3h2.4l0.7,2.2c0,0.1,0.1,0.1,0.1,0.1h2.2c0,0,0,0,0,0c0.1,0,0.1-0.1,0.1-0.1c0,0,0,0,0-0.1l-2.8-9c0-0.1-0.1-0.1-0.1-0.1H8.9c-0.1,0-0.1,0-0.1,0.1l-2.7,9c0,0,0,0.1,0,0.1C6.1,16.6,6.1,16.6,6.2,16.6z M11,12.5H9.4l0.5-1.7c0.1-0.3,0.2-0.7,0.3-1c0-0.1,0-0.2,0.1-0.2c0.1,0.4,0.2,0.9,0.3,1.3L11,12.5z M15.4,9.8c-0.1,0-0.1,0.1-0.1,0.1v6.5c0,0.1,0.1,0.1,0.1,0.1h2c0.1,0,0.1-0.1,0.1-0.1V10c0-0.1-0.1-0.1-0.1-0.1H15.4z M16.4,9.3c0.7,0,1.2-0.5,1.2-1.1c0-0.7-0.5-1.1-1.2-1.1c-0.4,0-0.7,0.1-0.9,0.3c-0.2,0.2-0.3,0.5-0.3,0.8c0,0.3,0.1,0.6,0.3,0.8C15.8,9.2,16.1,9.3,16.4,9.3z"/>
</svg>
