<?xml version="1.0" encoding="utf-8"?>
<!-- Generator: Adobe Illustrator 23.0.3, SVG Export Plug-In . SVG Version: 6.00 Build 0)  -->
<svg version="1.1" id="Слой_1" xmlns="http://www.w3.org/2000/svg" xmlns:xlink="http://www.w3.org/1999/xlink" x="0px" y="0px"
	 viewBox="0 0 285.5 66.7" style="enable-background:new 0 0 285.5 66.7;" xml:space="preserve">
<path fill="#585D61" d="M159.8,0.2v20.2c-1-1.4-2.7-2.8-5.2-4c-2.5-1.3-5.6-2-9.4-2c-4.2,0-8.1,1.1-11.9,3.3v0l-7,17.3l-4.3,10.8
	c0.8,5.8,3.3,10.7,7.2,14.5c4.4,4.3,9.9,6.4,16.7,6.4s11.5-2.4,14.4-7.1v5.3h14.4V0.2H159.8z M148.4,53.4c-7,0-12.7-5.7-12.7-12.7
	c0-7,5.7-12.7,12.7-12.7c7,0,12.7,5.7,12.7,12.7C161.1,47.8,155.4,53.4,148.4,53.4z M179.8,5v10.6h13.7V5H179.8z M179.8,20v45.1h5.3
	l8.3,0V20H179.8z M226.7,37.9c-1.8-1-4.9-2.1-9.3-3.4c0,0-0.1,0-0.1,0c-0.3-0.1-0.6-0.2-0.9-0.3c-1.1-0.4-2.1-0.7-2.9-1
	c-0.8-0.3-1.6-0.6-2.4-1c-0.1,0-0.2-0.1-0.3-0.2c-0.1,0-0.2-0.1-0.3-0.2c-0.5-0.3-0.9-0.6-1.2-1c-0.4-0.5-0.6-1-0.6-1.5
	c0-0.8,0.4-1.6,1-2.3c0.7-0.7,1.8-1.1,3.2-1.1c1,0,1.8,0.2,2.5,0.5c0.7,0.3,1.2,0.7,1.4,1.2c0.3,0.5,0.4,0.8,0.5,1.1
	c0.1,0.3,0.1,0.6,0.1,0.8h14.6c-0.3-2.4-0.9-4.5-1.9-6.4c-1-1.9-2.2-3.4-3.5-4.5c-1.3-1.1-2.9-2-4.6-2.7c-1.7-0.7-3.3-1.2-4.7-1.4
	c-1.4-0.3-2.8-0.4-4.1-0.4h-0.2c-2.8,0-5.4,0.5-7.9,1.4c0,0,0,0,0,0c-1.1,0.4-5.8,2.5-8.3,7.8c-0.3,0.6-3,6.7,0.1,12.8
	c0,0,2.7,5.4,8.8,7.7c1.6,0.6,3.6,1.3,3.6,1.3c1.3,0.5,2.4,0.8,3.1,1.1c0.7,0.3,1.5,0.5,2.3,0.9c0.8,0.3,1.5,0.6,1.9,0.9
	c0.4,0.2,0.8,0.5,1.2,0.9l0,0c0.4,0.3,0.6,0.7,0.7,1c0.1,0.4,0.2,0.8,0.2,1.3c0,1.2-0.5,2.1-1.6,2.8c-1,0.7-2.3,1.1-3.7,1.1
	c-0.4,0-0.7,0-1.1-0.1c-0.4-0.1-0.9-0.2-1.6-0.5c-0.7-0.3-1.3-0.7-1.8-1.4c-0.5-0.7-0.8-1.6-0.9-2.6h-14.8c0.3,3.1,1.2,5.8,2.6,8.1
	s3.2,4,5.2,5.1c2,1.1,4.1,2,6.1,2.5c2,0.5,4.1,0.8,6.2,0.8c3.7,0,7-0.7,10-2c3-1.3,5.4-3.3,7.3-6c1.9-2.6,2.8-5.7,2.8-9.2
	C233.7,44.7,231.3,40.7,226.7,37.9z M285,45.7c0.3-1.7,0.5-3.4,0.5-5.2c0-1.7-0.2-3.3-0.5-4.9C282.8,23.3,272,14,259,14
	c-14.6,0-26.5,11.9-26.5,26.5c0,14.6,11.9,26.5,26.5,26.5c10.9,0,20.3-6.6,24.4-16.1h-15.8c-2.1,1.8-5.2,3-8.6,3
	c-6,0-10.9-3.6-11.5-8.2H285z M259,27.4c6,0,10.9,3.6,11.5,8.2h-23.1C248.1,31,253,27.4,259,27.4z"/>
<path fill="#f44336" d="M0,27.5V16.1h7V0h14.4v16.1h7.2v11.5h-7.2v37.5l-8.5,0H7V27.5H0z M61,15.5c-1.3-0.4-2.7-0.6-4.1-0.7c-0.3,0-0.6,0-0.9,0c-0.3,0-0.6,0-0.9,0c-3.3,0.2-6.4,1.2-9,3c-0.9,0.6-1.7,1.2-2.5,2V0h-15v65h15V37.6c0-0.3,0-0.6,0-0.8c0-0.2,0-0.3,0-0.5c0-0.6,0.1-1.1,0.2-1.7c0.6-2.9,2.8-5.1,5.6-5.9c0.6-0.2,1.3-0.3,2-0.3c0.6,0,1.2,0.1,1.8,0.2c0,0,0,0,0,0c3.3,0.8,5.8,3.7,6,7.1c0,0.1,0,0.2,0,0.3v0.2c0,0.5,0,1.2,0,1.9V65H74V32.8C74,24.6,68.5,17.7,61,15.5z M100.5,14.1C85.9,14.1,74,26,74,40.6s11.9,26.5,26.5,26.5c5.5,0,10.5-1.7,14.8-4.5L120,51h-10.9c-2.1,1.8-5.2,3-8.6,3c-6,0-10.9-3.6-11.5-8.2h33.1l4.3-10.8v0C123.9,23.1,113.3,14.1,100.5,14.1z M89,35.7c0.6-4.6,5.5-8.2,11.5-8.2s10.9,3.6,11.5,8.2H89z"/>
</svg>
